<?xml version="1.0" encoding="UTF-8" standalone="no"?>
<!-- Created with Inkscape (http://www.inkscape.org/) -->

<svg
   xmlns:dc="http://purl.org/dc/elements/1.1/"
   xmlns:cc="http://creativecommons.org/ns#"
   xmlns:rdf="http://www.w3.org/1999/02/22-rdf-syntax-ns#"
   xmlns:svg="http://www.w3.org/2000/svg"
   xmlns="http://www.w3.org/2000/svg"
   xmlns:sodipodi="http://sodipodi.sourceforge.net/DTD/sodipodi-0.dtd"
   xmlns:inkscape="http://www.inkscape.org/namespaces/inkscape"
   width="132mm"
   height="49mm"
   viewBox="0 0 467.71582 173.62196"
   id="svg5800"
   version="1.1"
   inkscape:version="0.91 r13725"
   sodipodi:docname="text_right.svg"
   inkscape:export-filename="/home/tgraf/Dropbox/Nice Things/Cilium/Logo/modified/text_right.png"
   inkscape:export-xdpi="299.83044"
   inkscape:export-ydpi="299.83044">
  <defs
     id="defs5802" />
  <sodipodi:namedview
     id="base"
     pagecolor="#ffffff"
     bordercolor="#666666"
     borderopacity="1.0"
     inkscape:pageopacity="0.0"
     inkscape:pageshadow="2"
     inkscape:zoom="2.8"
     inkscape:cx="215.67829"
     inkscape:cy="134.58812"
     inkscape:document-units="px"
     inkscape:current-layer="g5731"
     showgrid="false"
     inkscape:window-width="2560"
     inkscape:window-height="1376"
     inkscape:window-x="0"
     inkscape:window-y="27"
     inkscape:window-maximized="1" />
  <metadata
     id="metadata5805">
    <rdf:RDF>
      <cc:Work
         rdf:about="">
        <dc:format>image/svg+xml</dc:format>
        <dc:type
           rdf:resource="http://purl.org/dc/dcmitype/StillImage" />
        <dc:title></dc:title>
      </cc:Work>
    </rdf:RDF>
  </metadata>
  <g
     inkscape:label="Layer 1"
     inkscape:groupmode="layer"
     id="layer1"
     transform="translate(0,-878.73983)">
    <g
       transform="matrix(1.2499999,0,0,-1.2499999,-14.728971,1491.032)"
       id="g5731">
      <path
         d="m 76.03804,420.57381 c 0.059,-3.9412 2.04269,-7.3426 5.37369,-9.4229 l 0.043,-0.027 0.046,-0.025 c 2.429,-1.3011 5.1795,-1.7646 7.8731,-1.1309 l 0.025,0.01 0.6005,0.1613 0.022,0.01 c 4.6828,1.4152 7.7938,5.0372 8.0216,10.0163 l 0,0.035 0,0.1881 -8e-4,0.077 -0.01,0.1948 -8e-4,0.011 c -0.2267,4.979 -3.3377,8.6011 -8.0205,10.0163 l -0.022,0.01 -0.5995,0.1624 -0.026,0.01 c -2.6948,0.6337 -5.4442,0.1701 -7.8744,-1.1309 l -0.045,-0.025 -0.043,-0.027 c -3.2282,-2.0154 -5.18949,-5.2713 -5.36249,-9.0568 l 0,-0.033 0,-0.011"
         style="fill:#ed1c24;fill-opacity:1;fill-rule:evenodd;stroke:none"
         id="path4941"
         inkscape:connector-curvature="0" />
      <path
         d="m 131.23852,408.90601 c 6.4736,0 11.7238,5.3015 11.7238,11.8384 0,6.5368 -5.2502,11.8372 -11.7238,11.8372 -6.4736,0 -11.7226,-5.3004 -11.7226,-11.8372 0,-6.5369 5.249,-11.8384 11.7226,-11.8384"
         style="fill:#8d5fd3;fill-opacity:1;fill-rule:evenodd;stroke:none"
         id="path4943"
         inkscape:connector-curvature="0" />
      <path
         d="m 27.863965,420.63751 c 0.12101,-6.776 5.20565,-12.2534 11.72918,-12.2875 6.35221,-0.037 11.54468,5.2753 11.8394,11.9022 -0.10183,6.8101 -5.37337,12.333 -11.85138,12.2963 -6.40133,-0.034 -11.41887,-5.3106 -11.7172,-11.911"
         style="fill:#cce86e;fill-opacity:1;fill-rule:evenodd;stroke:none"
         id="path4945"
         inkscape:connector-curvature="0" />
      <path
         d="m 57.088035,470.64321 c -5.90174,-3.3525 -7.99415,-10.434 -4.53456,-16.1619 2.16544,-3.5886 6.12986,-5.8272 10.48126,-5.9858 l 0.015,0 0.015,0 c 2.2769,-0.045 4.5461,0.5 6.5258,1.5606 l 0.01,0 0.01,0 c 3.396795,1.8645 5.691705,5.0838 6.224705,8.7596 l 0,0.01 9e-4,0.01 c 0.3435,2.5945 -0.219,5.2024 -1.6143,7.4604 -2.5781,4.1685 -7.331805,6.389 -12.399505,5.8006 -1.6388,-0.1901 -3.234,-0.6744 -4.6806,-1.4311 l -0.027,-0.013 -0.027,-0.016"
         style="fill:#fbc707;fill-opacity:1;fill-rule:evenodd;stroke:none"
         id="path4947"
         inkscape:connector-curvature="0" />
      <path
         d="m 96.75833,461.72921 c -0.4837,-4.6021 1.8722,-9.0699 6.0304,-11.4219 1.5806,-0.8979 3.3506,-1.4302 5.18169,-1.568 l 0.014,0 0.013,-9e-4 c 4.5758,-0.277 9.0145,1.936 11.3479,5.7517 l 0,0.01 c 1.6491,2.72 2.114,5.9315 1.2938,8.98 -0.7915,2.9298 -2.6276,5.4041 -5.3025,7.0093 l -0.054,0.032 -0.273,0.157 -0.011,0.01 c -2.8482,1.5728 -6.1389,1.9336 -9.29989,1.0933 -3.1611,-0.8428 -5.8136,-2.8327 -7.4415,-5.5695 l 0,-0.01 c -0.7791,-1.3199 -1.2802,-2.768 -1.4784,-4.2725 l -0.017,-0.1438 0,-0.052"
         style="fill:#f47216;fill-opacity:1;fill-rule:evenodd;stroke:none"
         id="path4949"
         inkscape:connector-curvature="0" />
      <path
         d="m 52.410275,387.21841 c -3.14193,-5.8387 -1.24211,-13.0572 4.11976,-16.4746 l 0.024,-0.016 0.024,-0.014 c 1.3143,-0.7713 2.7636,-1.265 4.2537,-1.4587 4.6028,-0.5998 8.9217,1.6636 11.263895,5.9127 1.2688,2.3017 1.77991,4.9601 1.46671,7.6036 l -0.001,0.01 -9e-4,0.011 c -0.48551,3.7469 -2.56921,7.0273 -5.656405,8.9291 l -0.01,0 -0.01,0 c -1.7997,1.0811 -3.8614,1.6364 -5.9288,1.5896 l -0.015,0 -0.014,0 c -3.9533,-0.1617 -7.55508,-2.4437 -9.52242,-6.1017"
         style="fill:#99d420;fill-opacity:1;fill-rule:evenodd;stroke:none"
         id="path4951"
         inkscape:connector-curvature="0" />
      <path
         d="m 102.91353,391.67391 c -4.2353,-2.4425 -6.6368,-7.0846 -6.1441,-11.8675 l 0,-0.052 0.018,-0.1495 c 0.2019,-1.5632 0.7125,-3.0678 1.5049,-4.4391 l 0,-0.01 c 1.6586,-2.8436 4.361,-4.9125 7.5816,-5.7868 3.22059,-0.8732 6.57199,-0.4995 9.47509,1.1359 l 0.011,0.01 0.2781,0.1619 0.055,0.035 c 2.7254,1.6665 4.5973,4.2386 5.4024,7.2827 0.8369,3.1674 0.3607,6.5042 -1.3182,9.3304 l 0,0.01 c -2.3773,3.9646 -6.8996,6.2626 -11.5616,5.9761 l -0.013,0 -0.014,0 c -1.86429,-0.1432 -3.66759,-0.6962 -5.27919,-1.6304"
         style="fill:#5f8dd3;fill-opacity:1;fill-rule:evenodd;stroke:none"
         id="path4953"
         inkscape:connector-curvature="0" />
      <path
         d="m 40.017965,430.51361 c 5.406,0.029 9.806,-4.343 9.892,-9.733 -0.246,-5.247 -4.58,-9.452 -9.882,-9.423 -5.445,0.027 -9.689,4.364 -9.79,9.727 0.249,5.226 4.436,9.403 9.78,9.429 z m 36.155975,-9.394 c 0.155,3.38 1.91199,6.288 4.80399,8.088 l 0.039,0.024 0.04,0.022 c 2.177,1.162 4.64,1.576 7.054,1.011 l 0.022,-0.01 0.538,-0.144 0.02,-0.01 c 4.195,-1.265 6.982,-4.5 7.185,-8.946 l 8e-4,-0.011 0.01,-0.174 0,-0.069 8e-4,-0.168 0,-0.031 c -0.203,-4.447 -2.99,-7.681 -7.185,-8.946 l -0.02,-0.01 -0.537,-0.145 -0.023,-0.01 c -2.414,-0.566 -4.877,-0.152 -7.054,1.01 l -0.04,0.022 -0.039,0.024 c -2.984,1.858 -4.76099,4.896 -4.81399,8.416 l 0,0.01 0,0.03 z m 26.99999,0.043 c -0.086,3.221 -1.118,6.316 -2.897,9 l -0.014,0.021 -0.013,0.021 c -0.19,0.311 -0.387,0.627 -0.562,0.947 l -0.609,1.112 c 0.026,1.667 0.203,3.653 0.828,5.226 1.33,3.342 4.563,5.716 8.53799,5.705 6.701,-0.018 12.561,3.154 15.64,9.191 l 0.01,0.011 c 0.409,0.784 0.757,1.599 1.038,2.437 1.274,3.793 1.302,7.793 -0.125,11.548 l 0,0.01 0,0.01 c -0.937,2.549 -2.475,4.785 -4.505,6.587 l -0.01,0.01 -0.01,0.01 c -1.885,1.718 -4.132,3.019 -6.566,3.782 l -0.01,0 -0.01,0 c -5.585,1.846 -11.52299,0.551 -16.01999,-3.178 -2.994,-2.483 -5.146,-5.901 -5.949,-9.718 -0.914,-4.345 0.019,-8.636 2.232,-12.443 3.073,-5.293 0.319,-11.737 -5.39,-13.425 -0.426,-0.215 -0.992,-0.213 -1.455,-0.227 l -0.021,0 -0.059,0 c -0.392,0 -0.784,0.01 -1.175,0.015 -0.505,0.01 -1.009,0.019 -1.514,0.031 l -0.498,0.011 -0.14,0 -0.037,0 -0.01,0 0,0 c -0.125,0 -0.252,0.023 -0.376,0.059 -2.19,0.535 -4.12,1.851 -5.411,3.704 -2.12399,3.049 -2.08999,6.837 -0.227,10.004 2.165,3.68 3.039,7.835 2.179,12.045 -0.769,3.7691 -2.855,7.1761 -5.75299,9.6871 -2.973,2.575 -6.730005,4.149 -10.676005,4.267 l 0,0 -0.019,0 c -0.197,0 -0.394,0.01 -0.59,0.01 l -0.01,0 c -3.086,-0.01 -6.021,-0.898 -8.67397,-2.457 -3.173,-1.865 -5.674,-4.538 -7.126,-7.936 -1.314,-3.077 -1.649,-6.495 -1.058,-9.781 0.088,-0.489 0.196,-0.975 0.325,-1.455 l 0.002,-0.01 c 0.919,-3.525 2.883,-6.743 5.704,-9.065 3.156,-2.596 7.00597,-3.782 11.06797,-3.749 4.36,0.036 8.075005,-2.613 9.145995,-6.867 l 0,-0.012 0.027,-0.113 0,-0.022 0,-0.01 c 0.015,-0.065 0.028,-0.131 0.042,-0.196 0.278,-1.729 0.205,-3.206 -0.16,-4.476 l -0.036,-0.122 c -0.024,-0.084 -0.056,-0.166 -0.095,-0.243 l -0.017,-0.033 -0.022,-0.041 -0.068,-0.123 -0.23799,-0.427 c -0.241,-0.432 -0.483,-0.864 -0.727,-1.295 -0.244,-0.433 -0.48901,-0.866 -0.739005,-1.295 l -0.012,-0.022 -0.014,-0.02 c -0.094,-0.15 -0.19,-0.301 -0.291,-0.447 -0.109,-0.155 -0.059,-0.09 -0.154,-0.203 -0.115,-0.136 -0.25,-0.249 -0.398,-0.335 -1.531,-1.475 -3.529,-2.39 -5.657,-2.568 -3.705,-0.31 -6.956,1.608 -8.76697,4.806 -2.041,3.593 -5.261,6.366 -9.148,7.785 -2.907,1.061 -6.071,1.304 -9.106,0.69 -6.47136,-1.309 -11.42936,-5.825 -13.18136,-12.205 l -0.031,-0.12 -0.104,-0.403 -0.1,-0.438 -0.021,-0.093 c -0.037,-0.174 -0.07,-0.347 -0.10101,-0.522 l -0.009,-0.048 c -0.1,-0.57 -0.172,-1.145 -0.216,-1.723 l -0.004,-0.059 c -0.011,-0.146 -0.019,-0.293 -0.027,-0.44 l -0.008,-0.209 -0.008,-0.341 -0.003,-0.279 0.017,0 0.004,-0.168 0.009,-0.209 c 0.007,-0.147 0.015,-0.293 0.026,-0.44 l 0.004,-0.059 c 0.044,-0.578 0.116,-1.153 0.216,-1.723 l 0.008,-0.048 c 0.032,-0.174 0.065,-0.348 0.101,-0.522 l 0.022,-0.093 0.1,-0.438 0.104,-0.402 0.032,-0.12 c 1.751,-6.381 6.709,-10.896 13.18,-12.205 3.035,-0.615 6.199,-0.372 9.107,0.69 3.886,1.419 7.107,4.191 9.147,7.784 1.81204,3.199 5.06204,5.117 8.76704,4.806 2.128,-0.178 4.127,-1.092 5.657,-2.567 0.148,-0.087 0.283,-0.199 0.398,-0.336 0.095,-0.113 0.045,-0.048 0.154,-0.203 0.101,-0.146 0.197,-0.296 0.291,-0.446 l 0.014,-0.021 0.012,-0.022 c 0.249995,-0.429 0.494995,-0.862 0.738995,-1.294 0.244,-0.432 0.48601,-0.863 0.728,-1.296 l 0.237,-0.426 0.068,-0.123 0.022,-0.041 0.017,-0.033 c 0.039,-0.078 0.071,-0.159 0.095,-0.243 l 0.036,-0.123 c 0.365,-1.269 0.438,-2.747 0.16,-4.476 -0.013,-0.065 -0.027,-0.131 -0.042,-0.196 l 0,-0.01 0,-0.022 -0.027,-0.113 0,-0.011 c -1.07,-4.255 -4.785995,-6.903 -9.144995,-6.868 -4.062,0.034 -7.91304,-1.153 -11.06804,-3.749 -2.822,-2.322 -4.786,-5.539 -5.705,-9.065 l -0.002,-0.01 c -0.12908,-0.481 -0.23708,-0.966 -0.32508,-1.455 -0.591,-3.287 -0.255,-6.705 1.059,-9.781 1.451,-3.398 3.952,-6.072 7.125,-7.937 2.65302,-1.559 5.58802,-2.451 8.67502,-2.457 l 0.01,0 c 0.197,0 0.394,0 0.59,0.01 l 0.02,0 9e-4,0 c 3.946,0.117 7.703995,1.692 10.676005,4.267 2.89799,2.511 4.98399,5.918 5.75299,9.686 0.86,4.21 -0.014,8.365 -2.179,12.046 -1.86299,3.166 -1.89599,6.954 0.227,10.004 1.291,1.852 3.221,3.168 5.411,3.703 0.124,0.037 0.251,0.056 0.376,0.06 l 0,0 0.01,0 0.038,0 0.139,0 0.498,0.012 c 0.505,0.011 1.009,0.022 1.514,0.031 0.392,0.01 0.783,0.012 1.175,0.015 l 0.059,0 0.021,0 c 0.463,-0.014 1.029,-0.011 1.455,-0.227 5.709,-1.688 8.464,-8.132 5.39,-13.425 -2.213,-3.807 -3.146,-8.098 -2.232,-12.443 0.804,-3.816 2.956,-7.235 5.949,-9.717 4.497,-3.729 10.43499,-5.024 16.01999,-3.179 l 0.01,0 0.01,0 c 2.434,0.764 4.681,2.064 6.566,3.782 l 0.01,0.01 0.01,0.01 c 2.031,1.803 3.568,4.038 4.504,6.587 l 0,0.01 0,0.01 c 1.427,3.754 1.399,7.754 0.126,11.547 -0.281,0.839 -0.63,1.653 -1.039,2.437 l -0.01,0.012 c -3.079,6.037 -8.939,9.208 -15.64,9.19 -3.97599,-0.011 -7.20999,2.363 -8.53999,5.705 -0.625,1.574 -0.802,3.56 -0.828,5.226 l 0.609,1.113 c 0.176,0.32 0.371,0.635 0.562,0.946 l 0.013,0.022 0.014,0.02 c 1.789,2.698 2.823,5.813 2.899,9.053 l 0,0.293 0,0.038 0,0.07 -0.016,0 z m 0.794,-31.197 c -3.335,-1.96 -5.226,-5.687 -4.838,-9.527 l 0,-0.043 0.015,-0.119 c 0.159,-1.256 0.56,-2.464 1.185,-3.565 l 0,0 c 1.306,-2.283 3.434,-3.944 5.97,-4.646 2.53599,-0.7 5.17599,-0.4 7.46099,0.912 l 0.01,0.01 0.219,0.13 0.043,0.027 c 2.146,1.339 3.619,3.403 4.254,5.847 0.658,2.543 0.284,5.222 -1.038,7.491 l 0,0 c -1.873,3.184 -5.433,5.028 -9.104,4.798 l -0.01,0 -0.011,0 c -1.46899,-0.115 -2.88799,-0.559 -4.15699,-1.31 z m -41.217995,1.32 c -3.396,-0.131 -6.49,-1.98 -8.17997,-4.944 -2.699,-4.731 -1.067,-10.58 3.53897,-13.349 l 0.021,-0.012 0.021,-0.012 c 1.128,-0.625 2.374,-1.025 3.654,-1.182 3.955,-0.485 7.664,1.348 9.676005,4.792 1.08999,1.864 1.52799,4.019 1.25999,6.161 l -9e-4,0.01 0,0.01 c -0.416,3.037 -2.20699,5.695 -4.857995,7.235 l -0.01,0 -0.01,0 c -1.545,0.875 -3.316,1.325 -5.093,1.287 l -0.012,0 -0.012,0 z m 41.207995,60.62 c -3.336,1.961 -5.226,5.688 -4.838,9.528 l 0,0.042 0.014,0.12 c 0.159,1.255 0.56,2.463 1.184,3.564 l 0,0 c 1.306,2.283 3.434,3.944 5.97,4.646 2.53599,0.701 5.17499,0.4 7.46099,-0.912 l 0.01,0 0.219,-0.13 0.043,-0.028 c 2.146,-1.338 3.619,-3.402 4.254,-5.846 0.658,-2.544 0.284,-5.222 -1.038,-7.492 l 0,-0.01 c -1.873,-3.183 -5.434,-5.028 -9.104,-4.798 l -0.01,0 -0.011,0 c -1.46899,0.115 -2.88799,0.559 -4.15699,1.309 z m -41.217995,-1.32 c -3.396,0.132 -6.491,1.98 -8.17997,4.944 -2.699,4.731 -1.067,10.58 3.53897,13.349 l 0.021,0.013 0.022,0.012 c 1.128,0.624 2.373,1.025 3.653,1.182 3.954,0.485 7.664,-1.348 9.676005,-4.792 1.08999,-1.865 1.52799,-4.019 1.25999,-6.162 l -9e-4,-0.01 0,-0.01 c -0.417,-3.037 -2.20799,-5.695 -4.858995,-7.236 l -0.01,0 -0.01,0 c -1.546,-0.876 -3.317,-1.325 -5.093,-1.288 l -0.012,0 -0.012,0"
         style="fill:#1e2222;fill-opacity:1;fill-rule:evenodd;stroke:none"
         id="path4955"
         inkscape:connector-curvature="0" />
      <path
         d="m 149.36692,420.93561 c 0,-9.568 -7.759,-17.328 -17.327,-17.328 -9.569,0 -17.328,7.76 -17.328,17.328 0,9.569 7.759,17.328 17.328,17.328 9.568,0 17.327,-7.759 17.327,-17.328 z m -7.438,0 c 0,-5.461 -4.428,-9.889 -9.889,-9.889 -5.461,0 -9.889,4.428 -9.889,9.889 0,5.461 4.428,9.89 9.889,9.89 5.461,0 9.889,-4.429 9.889,-9.89"
         style="fill:#1e2222;fill-opacity:1;fill-rule:evenodd;stroke:none"
         id="path4957"
         inkscape:connector-curvature="0" />
      <g
         id="g5459"
         style="font-style:normal;font-variant:normal;font-weight:normal;font-stretch:normal;font-size:40px;line-height:125%;font-family:'Poller One';-inkscape-font-specification:'Poller One, Normal';text-align:start;letter-spacing:0px;word-spacing:0px;writing-mode:lr-tb;text-anchor:start;fill:#000000;fill-opacity:1;stroke:none;stroke-width:1px;stroke-linecap:butt;stroke-linejoin:miter;stroke-opacity:1"
         transform="matrix(0.8,0,0,-0.8,164.12218,1519.5934)">
        <path
           sodipodi:type="inkscape:offset"
           inkscape:radius="0.56155056"
           inkscape:original="M 83.830078 1330.6992 C 79.420078 1330.6992 79.419922 1337.988 79.419922 1354.998 C 79.419922 1370.478 79.599141 1385.2388 79.869141 1393.9688 C 80.139141 1398.8286 81.670078 1399.9082 83.830078 1399.9082 C 86.170078 1399.9082 87.608906 1399.5489 87.878906 1393.8789 C 88.328906 1382.9889 88.419922 1374.259 88.419922 1363.459 C 88.419922 1354.459 88.328902 1344.8273 87.878906 1336.2773 C 87.608906 1331.4173 85.900078 1330.6992 83.830078 1330.6992 z M 57.619141 1336.1875 C 54.739141 1336.1875 52.128906 1338.618 52.128906 1341.498 C 52.128906 1344.558 54.829609 1346.9883 57.349609 1346.9883 C 60.319609 1346.9883 63.199219 1344.5577 63.199219 1341.6777 C 63.199219 1338.7077 60.319141 1336.1875 57.619141 1336.1875 z M 110.22461 1336.1875 C 107.34461 1336.1875 104.73436 1338.618 104.73438 1341.498 C 104.73438 1344.558 107.43508 1346.9883 109.95508 1346.9883 C 112.92508 1346.9883 115.80469 1344.5577 115.80469 1341.6777 C 115.80469 1338.7077 112.92461 1336.1875 110.22461 1336.1875 z M 57.529297 1352.4785 C 53.119297 1352.4785 53.119141 1359.5877 53.119141 1376.5977 C 53.119141 1383.4377 53.298359 1389.1974 53.568359 1393.6074 C 53.838359 1398.4674 55.369297 1399.5488 57.529297 1399.5488 C 59.869297 1399.5488 61.310078 1399.1876 61.580078 1393.5176 C 61.850078 1387.3076 62.119141 1382.4478 62.119141 1376.5078 C 62.119141 1370.5678 61.940078 1364.5383 61.580078 1358.2383 C 61.310078 1353.3783 59.599297 1352.4785 57.529297 1352.4785 z M 110.13477 1352.4785 C 105.72477 1352.4785 105.72461 1359.5877 105.72461 1376.5977 C 105.72461 1383.4377 105.90383 1389.1974 106.17383 1393.6074 C 106.44383 1398.4674 107.97477 1399.5488 110.13477 1399.5488 C 112.47477 1399.5488 113.91555 1399.1876 114.18555 1393.5176 C 114.45555 1387.3076 114.72461 1382.4478 114.72461 1376.5078 C 114.72461 1370.5678 114.54555 1364.5383 114.18555 1358.2383 C 113.91555 1353.3783 112.20477 1352.4785 110.13477 1352.4785 z M 203.00195 1352.6582 C 196.97195 1352.6582 187.79242 1354.3689 186.98242 1369.1289 C 186.71242 1373.7189 186.71289 1375.6987 186.71289 1380.4688 C 186.71289 1385.3286 186.80273 1388.6574 186.80273 1391.3574 C 186.89273 1396.3974 187.61273 1399.0977 191.30273 1399.0977 C 192.47273 1399.0977 194.18219 1398.8283 194.99219 1396.4883 C 195.71219 1394.4183 195.80273 1391.628 195.80273 1387.668 C 195.80273 1382.088 195.62305 1383.619 195.62305 1379.209 C 195.62305 1370.569 195.62205 1361.2988 204.26172 1361.2988 C 213.44172 1361.2988 215.42258 1371.558 216.14258 1383.168 C 216.77258 1393.608 215.8718 1399.2773 221.0918 1399.2773 C 226.8518 1399.2773 225.50297 1392.708 226.04297 1383.168 C 226.85297 1368.048 230.9932 1361.2988 238.2832 1361.2988 C 246.8332 1361.2988 246.83203 1370.749 246.83203 1379.209 C 246.83203 1383.169 246.65234 1383.1687 246.65234 1388.3887 C 246.65234 1392.0787 246.74284 1394.4183 247.46289 1396.4883 C 248.18289 1398.3783 249.17234 1399.0977 251.15234 1399.0977 C 255.38234 1399.0977 255.56234 1395.9474 255.65234 1391.3574 C 255.65234 1388.6574 255.74219 1385.3286 255.74219 1380.4688 C 255.74219 1375.6988 255.74266 1373.7189 255.47266 1369.1289 C 254.75266 1354.7289 246.83156 1352.9277 240.35156 1352.9277 C 226.76156 1352.9277 222.08164 1361.2987 221.18164 1369.2188 C 220.28164 1361.0286 215.96195 1352.6582 203.00195 1352.6582 z M 135.26562 1352.8379 C 130.85564 1352.8379 130.85547 1357.788 130.85547 1365.168 C 130.85547 1380.468 132.83625 1400.1777 150.65625 1400.1777 C 168.47625 1400.1777 170.45508 1380.468 170.45508 1365.168 C 170.45508 1357.788 170.45492 1352.8379 166.04492 1352.8379 C 163.34492 1352.8379 161.72508 1354.638 161.45508 1358.418 C 160.73508 1367.688 163.70625 1391.3574 150.65625 1391.3574 C 137.60625 1391.3574 140.57547 1367.688 139.85547 1358.418 C 139.58547 1354.638 137.96563 1352.8379 135.26562 1352.8379 z M 22.810547 1353.2891 C 7.4205471 1353.2891 -0.58984375 1364.1791 -0.58984375 1376.8691 C -0.58984375 1391.5391 8.2307035 1399.998 22.720703 1399.998 C 29.290703 1399.998 39.371094 1397.1174 39.371094 1391.3574 C 39.371094 1388.6574 38.021328 1387.9375 35.861328 1387.9375 C 32.801328 1387.9375 31.541094 1392.0781 21.371094 1392.0781 C 13.361094 1392.0781 8.7714844 1385.7781 8.7714844 1376.3281 C 8.7714844 1367.6881 13.271406 1361.748 21.191406 1361.748 C 28.751406 1361.748 30.46 1363.6387 33.25 1363.6387 C 36.31 1363.6387 37.75 1362.4677 37.75 1359.6777 C 37.75 1355.6277 29.740547 1353.2891 22.810547 1353.2891 z "
           style="font-style:normal;font-variant:normal;font-weight:normal;font-stretch:normal;font-size:90px;line-height:125%;font-family:Sniglet;-inkscape-font-specification:Sniglet;text-align:start;letter-spacing:6px;word-spacing:0.03px;writing-mode:lr-tb;text-anchor:start;fill:#333333"
           id="path5461"
           d="m 83.830078,1330.1367 c -1.257187,0 -2.319341,0.5886 -3.019531,1.6602 -0.70019,1.0715 -1.113433,2.5824 -1.394531,4.5957 -0.562196,4.0265 -0.558594,10.1004 -0.558594,18.6054 0,15.4844 0.180805,30.2465 0.451172,38.9883 a 0.56160671,0.56160671 0 0 0 0,0.014 c 0.138133,2.4863 0.588092,4.0817 1.390625,5.1074 0.802533,1.0257 1.957302,1.3633 3.130859,1.3633 1.198742,0 2.388115,-0.1098 3.226563,-1.0859 0.838447,-0.9761 1.245585,-2.5968 1.382812,-5.4786 a 0.56160671,0.56160671 0 0 0 0,-0 c 0.450382,-10.8992 0.542969,-19.6402 0.542969,-30.4433 0,-9.0038 -0.09202,-18.6428 -0.542969,-27.211 a 0.56160671,0.56160671 0 0 0 0,-0 c -0.138554,-2.494 -0.639937,-4.0228 -1.496094,-4.959 -0.856157,-0.9362 -2.013345,-1.1504 -3.113281,-1.1504 z m -26.210937,5.4883 c -3.195938,0 -6.052735,2.6537 -6.052735,5.873 0,3.3905 2.902162,6.0528 5.783203,6.0528 3.276376,0 6.41211,-2.6187 6.41211,-5.8731 0,-3.333 -3.093141,-6.0527 -6.142578,-6.0527 z m 52.605469,0 c -3.19594,0 -6.05276,2.6537 -6.05273,5.873 -1e-5,3.3905 2.90216,6.0528 5.7832,6.0528 3.27637,0 6.41211,-2.6187 6.41211,-5.8731 0,-3.333 -3.09314,-6.0527 -6.14258,-6.0527 z m -52.695313,16.291 c -1.253376,0 -2.315488,0.5735 -3.017578,1.6289 -0.70209,1.0554 -1.115242,2.5438 -1.396485,4.5352 -0.562485,3.9828 -0.558593,10.0126 -0.558593,18.5176 0,6.8498 0.180275,12.6202 0.451171,17.0449 0.138432,2.4837 0.58868,4.078 1.390626,5.1035 0.80244,1.0261 1.957146,1.3633 3.130859,1.3633 1.198893,0 2.389663,-0.1076 3.228515,-1.084 0.838853,-0.9765 1.245583,-2.5986 1.382813,-5.4805 a 0.56160671,0.56160671 0 0 0 0,-0 c 0.269849,-6.2066 0.541016,-11.0782 0.541016,-17.0352 0,-5.9513 -0.180457,-11.991 -0.541016,-18.3008 -0.138537,-2.4936 -0.639824,-4.0606 -1.486328,-5.039 -0.846504,-0.9785 -2.008634,-1.252 -3.125,-1.252 z m 52.605473,0 c -1.25338,0 -2.31549,0.5735 -3.01758,1.6289 -0.70209,1.0554 -1.11524,2.5438 -1.39649,4.5352 -0.56248,3.9828 -0.55859,10.0126 -0.55859,18.5176 0,6.8498 0.18027,12.6202 0.45117,17.0449 0.13843,2.4837 0.58868,4.078 1.39063,5.1035 0.80244,1.0261 1.95714,1.3633 3.13086,1.3633 1.19889,0 2.38966,-0.1076 3.22851,-1.084 0.83885,-0.9765 1.24558,-2.5986 1.38281,-5.4805 a 0.56160671,0.56160671 0 0 0 0,-0 c 0.26985,-6.2066 0.54102,-11.0782 0.54102,-17.0352 0,-5.9513 -0.18046,-11.991 -0.54102,-18.3008 -0.13853,-2.4936 -0.63982,-4.0606 -1.48632,-5.039 -0.84651,-0.9785 -2.00864,-1.252 -3.125,-1.252 z m 92.86718,0.1797 c -3.0681,0 -6.99825,0.4281 -10.29492,2.8066 -3.29667,2.3786 -5.87386,6.7007 -6.28515,14.1954 -0.27042,4.5978 -0.27149,6.6018 -0.27149,11.3711 0,4.8667 0.0898,8.2011 0.0898,10.8886 a 0.56160671,0.56160671 0 0 0 0.002,0.01 c 0.0454,2.5449 0.22797,4.5398 0.95898,6.0019 0.73101,1.4621 2.11959,2.2911 4.10156,2.2911 0.6281,0 1.44866,-0.07 2.24415,-0.4942 0.79548,-0.4242 1.53379,-1.215 1.97656,-2.4941 0.76664,-2.2041 0.84179,-5.0354 0.84179,-9.0039 0,-5.5921 -0.17968,-4.0643 -0.17968,-8.459 0,-4.32 0.0162,-8.7636 1.05273,-12.0254 0.51829,-1.6309 1.27904,-2.9536 2.38672,-3.8691 1.10768,-0.9155 2.57722,-1.4551 4.63672,-1.4551 4.38081,0 6.91736,2.3476 8.59766,6.2422 1.68029,3.8945 2.36399,9.3181 2.72265,15.1015 0.31351,5.1968 0.23591,9.2085 0.76172,12.0371 0.26294,1.4145 0.67929,2.5599 1.45313,3.375 0.77383,0.8151 1.88827,1.2227 3.29492,1.2227 1.54674,0 2.74021,-0.4698 3.54492,-1.3594 0.8047,-0.8895 1.20971,-2.1189 1.44336,-3.5898 0.4673,-2.942 0.25534,-6.9531 0.52344,-11.6895 a 0.56160671,0.56160671 0 0 0 0,-0 c 0.4025,-7.5135 1.6437,-12.9076 3.61718,-16.3555 1.97348,-3.4479 4.5908,-4.9824 8.0625,-4.9824 2.03406,0 3.48398,0.5483 4.58008,1.4765 1.0961,0.9283 1.85181,2.2687 2.36524,3.9121 1.02684,3.2869 1.04101,7.731 1.04101,11.961 0,3.943 -0.17969,3.9468 -0.17969,9.1797 0,3.6992 0.0834,6.103 0.8418,8.2832 a 0.56160671,0.56160671 0 0 0 0.006,0.016 c 0.38203,1.0028 0.86679,1.7696 1.57227,2.2715 0.70547,0.5019 1.58456,0.7012 2.64257,0.7012 1.12721,0 2.04077,-0.2118 2.76368,-0.6446 0.7229,-0.4328 1.22717,-1.0835 1.55468,-1.8457 0.65503,-1.5243 0.6971,-3.5009 0.74219,-5.8008 a 0.56160671,0.56160671 0 0 0 0.002,-0.012 c 0,-2.6875 0.0899,-6.0219 0.0899,-10.8886 0,-4.7676 -0.001,-6.7728 -0.27149,-11.3672 l 0,-0.01 c -0.36605,-7.2975 -2.58559,-11.5432 -5.61523,-13.9102 -3.03053,-2.3676 -6.77438,-2.8203 -10.06641,-2.8203 -6.9103,0 -11.65585,2.1502 -14.74804,5.3477 -2.28394,2.3617 -3.65166,5.2704 -4.4004,8.2598 -0.70725,-3.0888 -1.99524,-6.0706 -4.17187,-8.4825 -2.92027,-3.2358 -7.4284,-5.3945 -14.0293,-5.3945 z m -67.73633,0.1797 c -1.20754,0 -2.20434,0.3597 -2.93359,1.041 -0.72925,0.6813 -1.17728,1.6373 -1.46875,2.7793 -0.58294,2.2841 -0.57031,5.3823 -0.57031,9.0723 0,7.6742 0.48289,16.4781 3.25781,23.4492 2.77492,6.9711 7.98844,12.1211 17.10547,12.1211 9.11703,0 14.32909,-5.15 17.10352,-12.1211 2.77442,-6.9711 3.25781,-15.775 3.25781,-23.4492 0,-3.69 0.0126,-6.7882 -0.57031,-9.0723 -0.29148,-1.142 -0.7395,-2.098 -1.46875,-2.7793 -0.72926,-0.6813 -1.72604,-1.041 -2.9336,-1.041 -1.47479,0 -2.75323,0.5242 -3.63672,1.5742 -0.88285,1.0493 -1.37303,2.5642 -1.51367,4.5254 -0.36747,4.7312 0.19488,12.9235 -0.77148,19.9121 -0.48318,3.4943 -1.35371,6.6695 -2.84375,8.916 -1.49005,2.2466 -3.5303,3.5918 -6.62305,3.5918 -3.09275,0 -5.13282,-1.3452 -6.62305,-3.5918 -1.49022,-2.2465 -2.36228,-5.4217 -2.8457,-8.916 -0.96663,-6.9871 -0.40449,-15.1765 -0.77148,-19.9082 l 0,-0 c -0.14064,-1.9612 -0.63083,-3.4761 -1.51368,-4.5254 -0.88349,-1.05 -2.16191,-1.5742 -3.63672,-1.5742 z m -112.455073,0.4531 c -7.827452,0 -13.8526496,2.7859 -17.8867189,7.2129 -4.03406922,4.427 -6.0761719,10.4646 -6.0761719,16.9277 0,7.4476 2.2520683,13.3983 6.390625,17.4668 4.1385568,4.0686 10.1281488,6.2227 17.4824218,6.2227 3.36707,0 7.577182,-0.7248 11.011719,-2.2051 1.717268,-0.7401 3.241947,-1.6682 4.363281,-2.8242 1.121334,-1.156 1.837891,-2.5681 1.837891,-4.1719 0,-1.4436 -0.380856,-2.5015 -1.142578,-3.1504 -0.761723,-0.6489 -1.787302,-0.832 -2.929688,-0.832 -0.891642,0 -1.651759,0.3092 -2.394531,0.7168 -0.742772,0.4076 -1.491715,0.9185 -2.445313,1.4199 -1.907195,1.0028 -4.6416,2.0039 -9.65039,2.0039 -3.857777,0 -6.812513,-1.4851 -8.861328,-4.1133 -2.048816,-2.6281 -3.1757816,-6.4401 -3.1757816,-11.0742 0,-4.2225 1.1002876,-7.7329 3.1113276,-10.1719 2.011041,-2.4389 4.926484,-3.8476 8.746094,-3.8476 7.466374,0 9.014897,1.8926 12.058594,1.8926 1.601631,0 2.872791,-0.3026 3.763672,-1.0723 0.890881,-0.7697 1.298828,-1.9596 1.298828,-3.4512 0,-1.1976 -0.606126,-2.261 -1.542969,-3.1211 -0.936842,-0.86 -2.212571,-1.5548 -3.691406,-2.1171 -2.957671,-1.1248 -6.739411,-1.711 -10.267578,-1.711 z"
           transform="translate(0,-4)" />
        <path
           style="fill:#1e2222;fill-opacity:1;stroke:none;stroke-width:0.99752563;stroke-linejoin:round;stroke-miterlimit:4;stroke-dasharray:none;stroke-opacity:1"
           d="m 210.98207,109.22137 c -10.42343,-0.59971 -17.72013,-5.94605 -20.46398,-14.99409 -1.69916,-5.603127 -1.53659,-12.679992 0.41251,-17.956242 0.61852,-1.674351 1.90941,-4.135385 2.91422,-5.555839 1.08252,-1.530316 3.28476,-3.73453 4.82602,-4.830342 2.37875,-1.691257 5.86122,-3.163356 8.84599,-3.739358 2.26435,-0.436975 4.01438,-0.562281 6.73919,-0.48254 4.44391,0.130052 8.00758,0.918814 10.89354,2.411114 2.6342,1.362119 3.78667,3.11853 3.45383,5.26375 -0.17589,1.133679 -0.53336,1.884685 -1.17148,2.461188 -0.69549,0.628333 -1.35469,0.893534 -2.64755,1.065121 -1.35647,0.180031 -2.23621,0.05958 -4.70638,-0.64439 -3.10833,-0.885834 -4.36766,-1.055349 -7.83322,-1.054408 -2.95322,7.95e-4 -3.05926,0.0097 -4.16064,0.350343 -4.13403,1.278485 -6.78221,4.300021 -7.8751,8.985375 -0.60352,2.587349 -0.65734,5.866632 -0.14544,8.86096 0.77597,4.538925 3.01564,8.062054 6.14983,9.674019 2.12496,1.092899 3.9792,1.439189 6.9636,1.300499 4.16418,-0.19352 6.57504,-0.910815 10.12071,-3.011167 1.49267,-0.884218 2.4062,-1.160647 3.52553,-1.066807 1.57381,0.131943 2.37849,0.580104 2.99425,1.667627 0.33752,0.5961 0.35747,0.715935 0.35747,2.146577 0,1.45958 -0.0154,1.54669 -0.41904,2.37219 -1.28737,2.63273 -4.71155,4.74423 -9.65448,5.95335 -3.04618,0.74515 -5.93767,1.00612 -9.11938,0.82307 z"
           id="path4151"
           inkscape:connector-curvature="0"
           transform="translate(-190.424,1287.1995)" />
        <path
           style="fill:#1e2222;fill-opacity:1;stroke:none;stroke-width:7.9000001;stroke-linejoin:round;stroke-miterlimit:4;stroke-dasharray:none;stroke-opacity:1"
           d="m 246.84249,108.73098 c -1.54897,-0.37468 -2.5871,-1.65948 -3.03375,-3.75459 -0.47997,-2.25143 -0.72497,-9.464915 -0.73048,-21.508015 -0.005,-10.084601 0.0875,-13.160077 0.48618,-16.230121 0.5973,-4.599493 1.89523,-6.434531 4.54074,-6.419775 2.2754,0.01269 3.55071,1.254817 4.11215,4.005164 0.53343,2.613179 0.97357,17.636261 0.7497,25.58953 -0.14398,5.114795 -0.45608,12.388977 -0.5797,13.510787 -0.39414,3.57689 -1.58832,4.95029 -4.27065,4.91157 -0.49246,-0.007 -1.06585,-0.0542 -1.27419,-0.10455 z"
           id="path4153"
           inkscape:connector-curvature="0"
           transform="translate(-190.424,1287.1995)" />
        <path
           style="fill:#1e2222;fill-opacity:1;stroke:none;stroke-width:7.9000001;stroke-linejoin:round;stroke-miterlimit:4;stroke-dasharray:none;stroke-opacity:1"
           d="m 246.55847,56.125421 c -3.99054,-1.07456 -5.7723,-5.882555 -3.38283,-9.128421 0.91666,-1.245187 2.39034,-2.143715 3.98264,-2.428275 1.63898,-0.292901 3.49807,0.30136 4.8769,1.558908 1.47445,1.344754 2.15507,2.91052 2.04059,4.694365 -0.15699,2.446256 -2.31811,4.746905 -4.99109,5.313334 -1.0529,0.22312 -1.6698,0.2207 -2.52621,-0.0099 z"
           id="path4155"
           inkscape:connector-curvature="0"
           transform="translate(-190.424,1287.1995)" />
        <path
           style="fill:#1e2222;fill-opacity:1;stroke:none;stroke-width:7.9000001;stroke-linejoin:round;stroke-miterlimit:4;stroke-dasharray:none;stroke-opacity:1"
           d="m 273.03708,109.06336 c -1.57517,-0.44696 -2.47914,-1.63285 -2.95511,-3.87671 -0.42513,-2.0041 -0.70127,-17.351092 -0.69865,-38.827734 0.002,-16.659209 0.13325,-20.047825 0.89725,-23.170374 0.68633,-2.805108 2.00097,-4.162622 4.03409,-4.165646 2.68788,-0.004 4.04263,1.589419 4.40056,5.175798 0.53071,5.317623 0.805,28.46889 0.51687,43.625964 -0.14827,7.799583 -0.34511,13.913402 -0.51223,15.909902 -0.33005,3.94268 -1.34934,5.33202 -3.99437,5.44446 -0.67501,0.0287 -1.34032,-0.0169 -1.68841,-0.11566 z"
           id="path4157"
           inkscape:connector-curvature="0"
           transform="translate(-190.424,1287.1995)" />
        <path
           style="fill:#1e2222;fill-opacity:1;stroke:none;stroke-width:7.9000001;stroke-linejoin:round;stroke-miterlimit:4;stroke-dasharray:none;stroke-opacity:1"
           d="m 299.20501,108.66967 c -1.8156,-0.59335 -2.75238,-2.30576 -3.04514,-5.56646 -0.32784,-3.651285 -0.44874,-8.927078 -0.44997,-19.634835 -0.001,-11.357755 0.0665,-13.553918 0.51283,-16.620515 0.47798,-3.283747 1.26561,-4.897784 2.76381,-5.663733 0.62895,-0.321543 0.88473,-0.379843 1.6379,-0.373321 2.26686,0.01963 3.65212,1.29244 4.18426,3.844601 0.70864,3.398661 1.01372,22.75714 0.52432,33.270776 -0.12284,2.639027 -0.28323,5.328817 -0.35643,5.977327 -0.30511,2.7034 -0.94672,4.01012 -2.26004,4.6029 -0.73609,0.33223 -2.71322,0.42416 -3.51154,0.16326 z"
           id="path4159"
           inkscape:connector-curvature="0"
           transform="translate(-190.424,1287.1995)" />
        <path
           style="fill:#1e2222;fill-opacity:1;stroke:none;stroke-width:7.9000001;stroke-linejoin:round;stroke-miterlimit:4;stroke-dasharray:none;stroke-opacity:1"
           d="m 299.21442,56.12587 c -2.95335,-0.795375 -4.99423,-3.850098 -4.47067,-6.691561 0.47772,-2.592698 2.64013,-4.582546 5.34755,-4.920816 2.2107,-0.276208 4.9496,1.313496 6.02436,3.496635 1.09919,2.232767 0.69775,4.494618 -1.11668,6.291781 -0.98239,0.973053 -1.78496,1.428934 -3.11397,1.768837 -1.13321,0.289828 -1.75169,0.302594 -2.67059,0.05512 z"
           id="path4161"
           inkscape:connector-curvature="0"
           transform="translate(-190.424,1287.1995)" />
        <path
           style="fill:#1e2222;fill-opacity:1;stroke:none;stroke-width:7.9000001;stroke-linejoin:round;stroke-miterlimit:4;stroke-dasharray:none;stroke-opacity:1"
           d="m 336.9018,109.03811 c -8.10424,-1.77095 -13.01115,-8.21411 -15.01688,-19.71832 -0.7856,-4.505958 -0.94641,-7.019677 -0.95604,-14.944218 -0.008,-6.572734 0.0319,-7.765565 0.29813,-8.905331 0.42852,-1.834863 1.13766,-3.023634 2.19758,-3.683955 0.77228,-0.481122 1.00692,-0.535399 2.30249,-0.532623 2.18821,0.0047 3.36917,0.768225 4.28481,2.770306 0.62799,1.373121 0.81031,2.923463 0.81832,6.958746 0.0109,5.470529 0.31938,13.09853 0.62474,15.446428 0.70224,5.399581 2.10411,9.100466 4.23598,11.182809 1.58879,1.551888 4.27027,2.341438 6.65069,1.958264 4.72917,-0.761242 7.34981,-4.958351 8.40971,-13.468598 0.17647,-1.416977 0.32684,-5.102059 0.43239,-10.596651 0.089,-4.633298 0.25083,-8.915066 0.35963,-9.515042 0.52724,-2.907581 2.07173,-4.565269 4.45266,-4.77902 1.48294,-0.133132 2.45711,0.200479 3.4298,1.174558 1.50028,1.502423 1.93994,3.997108 1.94002,11.007966 1.8e-4,17.111991 -2.77674,27.054191 -9.0176,32.285491 -1.48913,1.24824 -4.25204,2.65739 -6.25,3.18765 -2.07131,0.54973 -7.04151,0.64244 -9.19643,0.17154 z"
           id="path4163"
           inkscape:connector-curvature="0"
           transform="translate(-190.424,1287.1995)" />
        <path
           style="fill:#1e2222;fill-opacity:1;stroke:none;stroke-width:7.9000001;stroke-linejoin:round;stroke-miterlimit:4;stroke-dasharray:none;stroke-opacity:1"
           d="m 148.91003,107.65849 c -6.5933,-0.60107 -12.16114,-3.65755 -15.91367,-8.735863 -2.78698,-3.771637 -4.17561,-8.002218 -4.17561,-12.721357 0,-1.273046 0.11757,-2.988877 0.26128,-3.812954 1.35186,-7.752144 7.05795,-14.328567 14.53257,-16.74919 2.50974,-0.812769 3.79894,-0.996658 6.90257,-0.984564 3.05291,0.0119 4.87168,0.324175 7.37738,1.266682 5.99643,2.255521 10.83646,7.295013 12.88835,13.419499 2.51035,7.492893 0.6323,15.832495 -4.85997,21.581047 -4.00129,4.188 -8.94075,6.44894 -14.69147,6.72474 -0.88393,0.0424 -1.92857,0.0478 -2.32143,0.012 l 0,0 z m 5.58449,-9.850656 c 6.70654,-2.511248 9.97456,-9.852887 7.30754,-16.416458 -1.42077,-3.496525 -4.60361,-6.281852 -8.34151,-7.299712 -1.58398,-0.431331 -4.6884,-0.439612 -6.24695,-0.01667 -3.62032,0.98246 -6.57834,3.474792 -8.16507,6.879638 -1.74886,3.752745 -1.41682,8.425723 0.84451,11.885436 1.15492,1.766973 3.0583,3.475766 4.86826,4.370578 2.14387,1.05989 3.18915,1.272359 5.93445,1.206265 2.08147,-0.05011 2.47413,-0.11307 3.79877,-0.609081 z"
           id="path4165"
           inkscape:connector-curvature="0"
           transform="translate(-190.424,1287.1995)" />
        <path
           style="fill:#1e2222;fill-opacity:1;stroke:none;stroke-width:7.9000001;stroke-linejoin:round;stroke-miterlimit:4;stroke-dasharray:none;stroke-opacity:1"
           d="m 337.92789,109.20911 c -4.28596,-0.63549 -8.06529,-2.82327 -10.60492,-6.13898 -3.16505,-4.132258 -4.93331,-9.310617 -6.01779,-17.62313 -0.29748,-2.280134 -0.42916,-17.610967 -0.16561,-19.28072 0.37669,-2.386587 1.42878,-4.123282 2.83494,-4.679657 0.71894,-0.284463 2.90782,-0.215288 3.70463,0.117076 1.49219,0.622425 2.56228,2.30187 2.90393,4.557587 0.0967,0.638393 0.22569,4.013393 0.28666,7.5 0.20597,11.779182 0.6492,15.675796 2.25754,19.847221 1.72583,4.476131 5.10678,6.715863 9.15408,6.064177 5.20469,-0.838044 7.95952,-5.896925 8.6646,-15.911398 0.10027,-1.424107 0.23165,-5.361607 0.29196,-8.75 0.17015,-9.560199 0.36668,-10.791362 1.98012,-12.404804 1.76946,-1.769456 4.43781,-1.812819 6.15068,-0.09995 1.56525,1.565251 1.94984,3.805076 1.94781,11.344042 -0.005,20.181448 -3.97371,30.518448 -13.20463,34.396868 -0.70358,0.29561 -1.81629,0.65411 -2.47269,0.79666 -1.40603,0.30535 -6.30399,0.47367 -7.71131,0.26501 z"
           id="path4167"
           inkscape:connector-curvature="0"
           transform="translate(-190.424,1287.1995)" />
        <path
           style="fill:#1e2222;fill-opacity:1;stroke:none;stroke-width:7.9000001;stroke-linejoin:round;stroke-miterlimit:4;stroke-dasharray:none;stroke-opacity:1"
           d="m 409.43836,108.15584 c -0.7464,-0.34812 -1.5086,-1.12764 -1.96438,-2.00902 -0.63861,-1.23493 -1.00073,-4.40378 -1.24314,-10.878391 -0.15922,-4.252807 -0.57245,-8.774673 -1.06676,-11.673472 -1.34571,-7.891594 -4.00969,-11.924363 -8.45473,-12.798871 -1.67875,-0.330274 -4.04219,-0.144016 -5.26268,0.41474 -2.01199,0.92112 -3.1421,2.395225 -3.93566,5.133606 -0.83078,2.866854 -0.90622,4.151193 -0.91758,15.620425 -0.009,9.563513 -0.0442,10.856273 -0.32352,12.036273 -0.42068,1.77735 -1.11091,3.00605 -2.06276,3.672 -0.73466,0.51398 -0.86419,0.54173 -2.52926,0.54173 -1.66629,0 -1.79394,-0.0274 -2.52662,-0.54235 -2.34393,-1.64738 -2.55744,-3.32709 -2.4165,-19.011224 0.0525,-5.84375 0.18017,-11.323965 0.28369,-12.178257 0.86124,-7.10736 3.27449,-11.30557 7.87371,-13.697528 2.31945,-1.206292 5.1488,-1.800681 8.57143,-1.800681 6.28974,0 11.31991,2.113441 14.49412,6.089746 1.23324,1.544865 2.64593,4.313057 3.20517,6.280566 0.21734,0.764651 0.45341,1.327151 0.5246,1.25 0.0712,-0.07715 0.25599,-0.582239 0.41067,-1.122417 0.15468,-0.540179 0.6114,-1.663189 1.01494,-2.495579 2.53964,-5.238627 6.78206,-8.271321 13.11836,-9.377663 2.37185,-0.414135 7.00998,-0.373973 9.19643,0.07963 4.40354,0.913569 7.54778,3.56504 9.28249,7.827722 0.61293,1.506132 1.17614,3.747997 1.42251,5.662315 0.72563,5.638057 0.68885,27.631717 -0.0501,29.972687 -0.70127,2.22154 -2.01068,3.1475 -4.45527,3.15057 -1.60508,0.002 -2.30352,-0.24345 -3.11012,-1.09304 -0.78117,-0.8228 -1.23912,-1.93771 -1.56612,-3.81286 -0.22856,-1.3107 -0.27387,-3.32692 -0.26263,-11.686382 0.0111,-8.232355 -0.0383,-10.4874 -0.26657,-12.182234 -0.62005,-4.603101 -1.88503,-7.01357 -4.30609,-8.205454 -2.07246,-1.020271 -5.27131,-0.929949 -7.55945,0.213447 -2.06768,1.033233 -4.06649,3.633155 -5.21722,6.786219 -1.58563,4.344736 -2.21314,8.735433 -2.48574,17.392761 -0.25122,7.978503 -0.50297,9.680963 -1.65347,11.181753 -0.85354,1.11341 -1.70462,1.48704 -3.52221,1.54632 -1.18857,0.0387 -1.67442,-0.0235 -2.23953,-0.28709 z"
           id="path4169"
           inkscape:connector-curvature="0"
           transform="translate(-190.424,1287.1995)"
           inkscape:export-xdpi="299.83044"
           inkscape:export-ydpi="299.83044" />
      </g>
    </g>
  </g>
</svg>
