<svg width="128" height="128" viewBox="0 0 128 128" fill="none" xmlns="http://www.w3.org/2000/svg">
<path d="M97.6102 57.0029C102.842 57.0031 105.722 59.5142 105.733 64.1113C105.733 68.8157 102.721 71.6161 97.5945 71.6162H93.4197V79H88.1619C88.1618 78.9641 88.1551 76.6266 88.1551 75.0801V60.7852C88.1551 59.3579 88.1619 57.0029 88.1619 57.0029H97.6102ZM124.06 57V61.6543C124.06 61.6543 121.861 61.6543 119.641 61.6543L113.562 61.6514V65.9873H118.531C120.577 65.9873 122.714 65.9931 122.746 65.9932V70.5088C122.714 70.5087 120.525 70.5029 118.531 70.5029H113.568V78.999H108.333V57H124.06ZM77.6873 57.0049C81.9678 57.0049 84.4783 59.0619 84.4783 62.5547C84.4783 64.1649 83.9506 65.4345 82.9461 66.333C82.3644 66.8352 81.8894 67.0998 80.8055 67.4961C82.1002 67.7864 82.7873 68.1034 83.5545 68.7646C84.6853 69.7691 85.2718 71.1953 85.2742 72.9355C85.2742 76.7414 82.5786 78.9873 77.9803 78.9873H70.7918C68.7903 78.9873 67.1043 78.9971 67.1043 78.9971C67.1042 78.9745 67.0936 77.0209 67.0936 75.1816V72.7051C66.7009 73.3278 66.155 74.0929 65.8406 74.4121C63.9558 76.3174 61.735 77.6545 59.1287 78.3193C57.7654 78.6698 56.3793 78.7897 54.9822 78.5488C51.9953 78.0418 49.9142 76.3821 48.7098 73.6035C48.4856 73.0698 48.3115 72.5164 48.1912 71.9502C47.9201 70.499 47.9359 69.0085 48.2381 67.5635C48.5744 66.1418 49.2034 64.8055 50.0838 63.6396C51.1509 62.1944 52.4515 61.0092 54.075 60.2119C55.1287 59.6929 56.2342 59.3775 57.4168 59.4111C58.5993 59.4449 59.6872 59.7783 60.5916 60.5645C61.6551 61.4918 62.0835 62.6581 61.827 64.0576C61.6711 64.825 61.3412 65.5469 60.8631 66.167C60.0668 67.2285 59.0981 68.1488 57.9979 68.8906C56.3594 70.031 54.5206 70.8523 52.5779 71.3115C52.2034 71.4019 51.8216 71.4627 51.4422 71.5361C51.1977 71.5843 51.17 71.6097 51.241 71.8506C51.8168 73.7714 52.9971 75.0927 54.9842 75.6094C56.0352 75.8744 57.1343 75.885 58.1902 75.6406C60.7484 75.0806 62.7724 73.6367 64.3719 72.1709C65.3353 71.2882 66.3488 70.0329 67.0906 68.9395V60.7383C67.0906 59.3416 67.1022 57.0339 67.1024 57.0049H77.6873ZM72.2703 74.6309H77.1326C78.7969 74.6307 79.8016 73.7061 79.8016 72.1465C79.8015 70.6146 78.7921 69.716 77.1063 69.7158H72.2703V74.6309ZM57.0691 62.0391C56.3818 62.1426 55.7247 62.3928 55.1424 62.7725C53.5176 63.795 52.3651 65.2203 51.5906 66.9619C51.2903 67.6357 51.0954 68.3518 51.0135 69.085C50.9834 69.3427 51.0303 69.3909 51.2772 69.3584C51.442 69.3343 51.6069 69.3086 51.7693 69.2773C53.3659 68.9685 54.891 68.3642 56.2654 67.4951C57.2964 66.8423 58.2204 66.0687 58.9539 65.0859C59.1846 64.7872 59.3708 64.4567 59.5066 64.1045C59.7884 63.3374 59.5481 62.6869 58.8328 62.2979C58.4417 62.094 58.0063 61.9879 57.5652 61.9893C57.3991 62.0049 57.2329 62.0162 57.0691 62.0391ZM93.409 67.1201H97.3455V67.1309C99.1943 67.1309 100.279 66.0843 100.279 64.2656C100.279 62.447 99.2473 61.4951 97.3455 61.4951H93.409V67.1201ZM72.2703 65.4873H76.9207C78.321 65.4871 79.193 64.6684 79.1932 63.374C79.1932 62.0794 78.3742 61.339 76.869 61.3389H72.2703V65.4873Z" fill="black"/>
<path d="M29.0292 79.39C25.1765 71.9823 28.8367 65.8579 28.8367 65.8579L27.3718 63.81L27.365 63.8005L24.9827 62.9731C24.9827 62.9731 20.1389 68.2115 11.9448 66.6005C9.79456 72.1543 9.73176 75.3735 14.6152 80.818L14.6234 80.8276C21.2297 83.9771 24.2946 83.0065 29.0292 79.39Z" fill="#FFE100"/>
<path d="M26.2394 56.8256C24.6653 54.8282 15.3613 52.1551 8.14743 54.5811C-1.289 57.7553 8.33037 68.4873 17.7695 66.7317C23.7806 65.6012 28.9562 60.2769 26.2394 56.8256Z" fill="#D9F1FD"/>
<path d="M15.688 59.1756L15.2907 58.4739C14.9395 58.6915 14.6183 58.954 14.3351 59.2548C13.3935 59.3328 12.4568 59.4627 11.5295 59.6439L11.5923 59.4842C9.16634 58.5285 8.29669 55.3039 8.28714 55.2725L7.468 55.4854L6.64887 55.697C6.683 55.8336 7.39428 58.4985 9.43938 60.1572C7.91475 60.6052 6.45043 61.2374 5.07886 62.0399L5.94168 63.5007C8.19976 62.1682 10.6667 61.4528 13.0572 61.1238C12.4347 62.4344 12.0005 64.2993 12.3009 66.87L13.9856 66.6735C13.6347 63.6836 14.4184 61.8952 15.1351 60.9231C18.5254 60.7554 21.9207 61.1278 25.1941 62.0262L25.7033 60.4125C22.4485 59.4868 19.0702 59.0696 15.688 59.1756Z" fill="#00AEEF"/>
<path d="M34.4133 62.9441C36.7738 63.8929 41.9603 72.0651 41.664 79.6708C41.2777 89.6206 28.2698 83.4129 27.3005 73.8604C26.6834 67.777 30.3422 61.3085 34.4133 62.9441Z" fill="#D9F1FD"/>
<path d="M41.0153 81.4226L40.9579 79.7284C40.9265 79.7284 37.6036 79.8157 35.9872 77.7433L35.8506 77.8498C35.7642 76.909 35.6252 75.9737 35.4342 75.0484C35.644 74.6937 35.8056 74.3126 35.9148 73.9152L35.1284 73.7268C34.2794 70.4533 32.9297 67.3306 31.127 64.4692L29.7167 65.4126C31.5043 68.2971 32.8196 71.4486 33.613 74.748C32.8826 75.7119 31.3877 76.9692 28.417 77.4785L28.701 79.1495C31.2567 78.714 32.9236 77.7706 34.0049 76.8027C34.3584 79.1905 34.3694 81.7571 33.7318 84.3032L35.3701 84.7128C35.7548 83.171 35.9492 81.5878 35.9489 79.9987C37.8848 81.3339 40.2903 81.4226 40.8842 81.4226C40.9538 81.4253 41.0003 81.424 41.0153 81.4226Z" fill="#00AEEF"/>
<path d="M47.3032 50.1874C47.1835 50.0708 47.042 49.9789 46.8868 49.9169C46.7316 49.855 46.5658 49.8242 46.3987 49.8263C46.2316 49.8285 46.0665 49.8635 45.913 49.9295C45.7595 49.9954 45.6204 50.0909 45.5038 50.2106C43.6554 52.1419 41.2205 53.408 38.578 53.8121C37.9459 53.0311 37.2195 52.3313 36.4155 51.7288C35.3697 50.9424 34.2013 50.334 32.9574 49.928C32.495 47.1645 33.0065 44.3261 34.4045 41.8978C34.4865 41.7519 34.5389 41.5914 34.5587 41.4253C34.5786 41.2592 34.5656 41.0908 34.5204 40.9297C34.4752 40.7686 34.3987 40.6181 34.2953 40.4865C34.1919 40.355 34.0637 40.2452 33.9178 40.1632C33.772 40.0813 33.6114 40.0289 33.4453 40.009C33.2792 39.9891 33.1108 40.0022 32.9498 40.0474C32.7887 40.0926 32.6381 40.169 32.5066 40.2724C32.3751 40.3758 32.2652 40.5041 32.1833 40.65C30.6616 43.307 30.0113 46.3742 30.3239 49.4202C27.4842 49.2359 24.807 50.2488 23.1824 52.4237C22.9277 52.7673 22.7038 53.1328 22.5134 53.5158C18.4846 52.2667 12.7152 51.7124 7.7417 53.3793C4.10338 54.608 2.40231 57.1405 3.18868 60.1686C3.90269 62.914 6.67137 65.6295 10.2319 67.0957C9.35989 68.9221 9.00392 70.9521 9.20249 72.9662C9.45779 75.4018 10.5554 77.6558 12.4039 79.5875L11.3991 85.1495L16.4505 82.6183C18.2102 83.5289 20.0219 83.9959 21.8226 83.9959C22.455 83.9957 23.086 83.9382 23.708 83.8238C25.6988 83.4413 27.5471 82.5217 29.0528 81.1644C31.4038 84.1174 34.7076 86 37.5172 86H37.7084C40.8347 85.9017 42.7911 83.5535 42.9399 79.72C43.1447 74.4625 40.9753 69.0712 38.6326 65.5544C38.9421 65.2671 39.2254 64.9527 39.4791 64.6151C40.8566 62.7748 41.2798 60.4075 40.6709 57.946C40.5147 57.3183 40.2984 56.707 40.0251 56.1207C42.8114 55.4831 45.3509 54.0459 47.3318 51.9854C47.5662 51.7431 47.6949 51.4176 47.6895 51.0805C47.6841 50.7434 47.5452 50.4222 47.3032 50.1874ZM31.1266 64.9673C32.3761 67.1674 33.402 69.4871 34.1888 71.8918L34.1492 71.8849C34.1492 71.9218 33.4775 75.2721 29.3218 76.5131C28.9363 75.6276 28.6815 74.6908 28.5655 73.7321C28.1941 70.0774 29.517 66.5961 31.1266 64.9673ZM27.3641 66.0459C26.4462 68.043 25.9676 70.2139 25.9606 72.4119C25.1524 72.5198 23.5141 72.5198 21.8035 71.2392C20.0929 69.9586 19.6533 68.42 19.5345 67.6036C21.642 66.9786 23.5906 65.9077 25.248 64.4636C25.8921 65.0675 26.6019 65.5973 27.3641 66.0431V66.0459ZM17.7188 59.5597C20.2462 59.6379 22.7594 59.9694 25.2207 60.5495C24.1121 62.5536 21.1441 64.8035 17.5331 65.4766C16.5824 65.6513 15.612 65.6931 14.6497 65.6008C14.632 61.2485 17.5973 59.6675 17.7338 59.5938L17.7188 59.5597ZM14.5037 54.8892C19.6915 54.8892 24.4548 56.6163 25.2398 57.6197C25.4487 57.8781 25.594 58.182 25.6639 58.5069C25.7339 58.8318 25.7266 59.1685 25.6425 59.4901C23.4816 58.9639 21.2789 58.6277 19.0594 58.4853C16.7183 58.323 14.3663 58.4279 12.049 58.7979C10.5322 58.1399 9.61752 56.664 9.13559 55.6128C10.8819 55.1198 12.6891 54.8762 14.5037 54.8892ZM5.65155 59.531C5.24198 57.9706 6.06111 56.7774 8.05434 55.9814C8.47346 56.9262 9.21205 58.2108 10.4053 59.1324C8.92749 59.4788 7.49424 59.9932 6.13347 60.6655C5.92158 60.3088 5.75943 59.9248 5.65155 59.5242V59.531ZM6.79014 61.5884C9.69943 60.1672 12.9336 59.6416 15.9208 59.5597C14.8641 60.5645 13.5521 62.4198 13.5221 65.4383C10.6769 64.8827 8.19905 63.2949 6.79014 61.5884ZM23.2493 81.3118C20.8178 81.7569 18.2526 81.0388 15.8293 79.2203C12.4162 76.6714 10.3356 72.3041 12.6743 67.8562C13.0743 67.9449 13.4784 68.0186 13.8893 68.0719C14.1337 70.2562 15.2627 73.4044 18.4164 75.7649C20.404 77.2772 22.831 78.0993 25.3285 78.1063C25.9232 78.1072 26.5169 78.0579 27.1033 77.9588C27.2644 78.3233 27.4419 78.6783 27.6316 79.0251C26.425 80.1982 24.9017 80.9931 23.2493 81.3118ZM35.3083 83.0238C33.0216 82.1105 31.0324 79.8838 29.8105 77.5479C32.6434 76.6605 34.0359 74.9021 34.6967 73.6174C35.4598 76.5226 35.8694 79.8087 35.3083 83.0238ZM37.6292 83.458C37.2169 83.4703 36.8046 83.435 36.4005 83.3528C36.6676 81.8444 36.7592 80.3102 36.6735 78.7807C37.8927 79.6654 39.3343 80.0094 40.3596 80.1459C40.1535 82.2948 39.236 83.4088 37.6237 83.458H37.6292ZM40.4074 79.0114C39.2634 78.8449 37.5896 78.3848 36.5302 77.1124C36.232 74.7854 35.67 72.4999 34.855 70.2999C34.0935 68.2089 33.1496 66.1888 32.0345 64.2629C32.3667 64.0702 32.7427 63.9659 33.1267 63.9598C33.4079 63.9611 33.6861 64.0172 33.9458 64.125C35.5213 64.7598 40.3924 71.915 40.402 79.0114H40.4074Z" fill="black"/>
</svg>
