<?xml version="1.0" encoding="UTF-8" standalone="no"?>
<svg
   width="107.00584"
   height="38.745174"
   viewBox="0 0 107.00585 38.745175"
   fill="none"
   version="1.1"
   id="svg28"
   sodipodi:docname="powered-by-ebpf_white.svg"
   inkscape:version="1.1.2 (0a00cf5339, 2022-02-04)"
   xmlns:inkscape="http://www.inkscape.org/namespaces/inkscape"
   xmlns:sodipodi="http://sodipodi.sourceforge.net/DTD/sodipodi-0.dtd"
   xmlns="http://www.w3.org/2000/svg"
   xmlns:svg="http://www.w3.org/2000/svg">
  <defs
     id="defs32" />
  <sodipodi:namedview
     id="namedview30"
     pagecolor="#ffffff"
     bordercolor="#666666"
     borderopacity="1.0"
     inkscape:pageshadow="2"
     inkscape:pageopacity="0.0"
     inkscape:pagecheckerboard="0"
     showgrid="false"
     inkscape:snap-page="true"
     inkscape:object-paths="false"
     inkscape:snap-intersection-paths="true"
     inkscape:snap-bbox="true"
     inkscape:bbox-paths="true"
     inkscape:bbox-nodes="true"
     inkscape:snap-bbox-edge-midpoints="true"
     inkscape:snap-bbox-midpoints="true"
     inkscape:snap-smooth-nodes="true"
     inkscape:snap-midpoints="true"
     inkscape:snap-object-midpoints="true"
     inkscape:snap-center="true"
     inkscape:snap-text-baseline="true"
     inkscape:zoom="11.313709"
     inkscape:cx="37.918601"
     inkscape:cy="25.544232"
     inkscape:window-width="2560"
     inkscape:window-height="2821"
     inkscape:window-x="1920"
     inkscape:window-y="0"
     inkscape:window-maximized="1"
     inkscape:current-layer="svg28"
     showguides="true"
     inkscape:guide-bbox="true"
     fit-margin-top="0"
     fit-margin-left="0"
     fit-margin-right="0"
     fit-margin-bottom="0" />
  <g
     id="path2-0"
     transform="translate(1.0048412,1.0015869)">
    <path
       style="color:#000000;fill:#1a1a1a;stroke-width:2;-inkscape-stroke:none"
       d="M 23.164468,2.94e-4 C 22.815354,0.008694 22.481246,0.201428 22.310953,0.529591 21.642353,1.818221 21.3543,3.478878 21.2465,4.959278 21.18299,5.831609 21.18094,6.675966 21.2133,7.41045 18.917955,7.3429 16.584083,8.221335 15.2758,11.0042 10.779601,9.76306 1.512308,9.676216 0.1000192,14.945606 c -0.8111253,3.0263 3.5063408,6.586719 5.9941408,7.074219 -0.77441,1.925 -1.419684,6.538497 2.191406,9.591797 l -0.55664,4.386719 v 0.0039 l 0.0039,-0.0039 3.914062,-2.144532 c 4.2173,2.1685 8.315891,-0.141859 9.837891,-1.568359 1.3855,2.0962 6.344572,4.721963 8.888672,2.851563 4.4296,-3.2567 0.893581,-11.709182 -1.949219,-15.363282 2.130812,-2.235967 2.092021,-4.702246 1.171875,-6.779296 0.701552,-0.243841 1.49429,-0.5611 2.289063,-0.94336 1.3521,-0.6503 2.806631,-1.53273 3.769531,-2.625 0.3566,-0.4046 0.312543,-1.019114 -0.09766,-1.371094 -0.4102,-0.35197 -1.031971,-0.308896 -1.388671,0.0957 -0.7042,0.798879 -1.877385,1.543856 -3.146485,2.154296 -0.871142,0.418916 -1.735346,0.74888 -2.4375,0.976563 C 27.877218,10.327624 27.031118,9.532527 26.23087,8.998337 l -0.002,-0.002 C 25.427592,8.462267 24.361374,7.98358 23.199573,7.691649 c -0.04744,-0.727474 -0.05959,-1.640716 0.0098,-2.59375 0.1012,-1.3895 0.366469,-2.741094 0.855469,-3.683594 0.2477,-0.477325 0.05627,-1.062218 -0.427734,-1.30664 -0.15125,-0.07638 -0.313968,-0.111239 -0.472657,-0.107422 z"
       id="path51359" />
    <path
       style="color:#000000;fill:#fefefe;fill-opacity:1;-inkscape-stroke:none"
       d="m 21.985911,-0.6317681 c -0.24675,0.16936038 -0.438254,0.46150239 -0.562083,0.70012747 C 20.647555,1.5645139 20.363237,3.3316529 20.25,4.8867187 20.207945,5.4643541 20.226404,5.9739208 20.228516,6.5039062 18.172646,6.6995444 16.137899,7.7208157 14.8125,9.9238281 12.443163,9.3691278 9.3380978,9.0776548 6.375,9.5449219 4.7553443,9.8003342 3.2034651,10.271179 1.9042969,11.085938 0.6051287,11.900696 -0.441188,13.105341 -0.86523438,14.6875 c -0.54581242,2.036421 0.58929508,3.980404 2.00781248,5.443359 1.1316193,1.16707 2.4677446,1.976966 3.7714844,2.464844 C 4.6093362,23.672682 4.3843861,24.971222 4.5507812,26.5 c 0.1955157,1.796326 1.0405625,3.740851 2.6933594,5.369141 l -0.7137618,5.874446 5.2664962,-2.831478 c 2.149015,0.912118 4.286839,0.958593 6.046875,0.46875 1.506382,-0.419247 2.649931,-1.114894 3.548828,-1.798828 0.947566,1.019325 2.211771,1.944625 3.734375,2.546875 1.902259,0.752418 4.136079,1.065611 5.837891,-0.185547 1.324881,-0.97407 2.072434,-2.382576 2.355468,-3.880859 0.283035,-1.498283 0.143546,-3.100149 -0.220703,-4.681641 -0.664384,-2.884616 -2.089633,-5.6116 -3.492187,-7.576172 1.565644,-2.026496 1.775295,-4.270513 1.199219,-6.228515 0.499046,-0.195735 0.985105,-0.369763 1.511718,-0.623047 1.418089,-0.682037 2.969369,-1.59865 4.085938,-2.865234 C 37.120009,9.2758406 37.028863,8.0003825 36.208984,7.296875 35.389186,6.5934515 34.132604,6.6796411 33.417969,7.4902344 32.874158,8.1071594 31.787531,8.8272671 30.587891,9.4042969 29.952404,9.7098905 29.365115,9.9186357 28.802734,10.119141 28.158416,9.3742032 27.490954,8.6371573 26.785156,8.1660156 l -0.002,-0.00195 C 26.077232,7.6935165 25.13763,7.3603904 24.199219,7.0488281 24.178865,6.4644609 24.157007,5.8569765 24.207031,5.1699219 24.302448,3.8598336 24.576027,2.6018204 24.953125,1.875 25.451681,0.91426768 25.050191,-0.29919482 24.087891,-0.78515625 23.788316,-0.93643871 23.464103,-1.0138645 23.140625,-1 c -0.403632,0.0172999 -0.821623,0.13960976 -1.154714,0.3682319 z m 4.799245,8.7977837 0.152344,0.125 -0.07227,-0.072266 z m -5.601562,0.2441407 1.064453,0.03125 0.002,0.042969 0.705078,0.1777344 c 1.050555,0.2639776 2.026819,0.7045373 2.716797,1.1640625 5.99e-4,3.987e-4 0.0014,0.00155 0.002,0.00195 l 0.002,0.00195 c 0.689864,0.4605048 1.467242,1.1859538 2.105469,2.0468748 l 0.427734,0.578125 0.04883,-0.01563 0.423829,0.960938 c 0.805623,1.818537 0.892807,3.717871 -0.980469,5.683593 l -0.595703,0.623047 0.529297,0.681641 c 1.315327,1.690706 2.874767,4.648501 3.517578,7.439453 0.321405,1.395476 0.414074,2.746589 0.203125,3.863281 -0.21095,1.116693 -0.684303,1.986347 -1.574219,2.640625 -0.842285,0.619241 -2.358295,0.554412 -3.917969,-0.0625 -1.559673,-0.616912 -3.048884,-1.784673 -3.544922,-2.535156 l -0.652343,-0.988281 -0.865235,0.810547 c -0.630755,0.591177 -1.935977,1.465322 -3.492187,1.898437 -1.556211,0.433115 -3.342031,0.467729 -5.205078,-0.490234 L 11.632813,32.722656 8.9667969,34.181641 9.3457031,31.199219 8.9316406,30.847656 C 7.3381507,29.500306 6.7109361,27.864268 6.5390625,26.285156 6.3671889,24.706045 6.7016245,23.187674 7.0214844,22.392578 L 7.4726562,21.271484 6.2871094,21.039062 C 5.3869172,20.862664 3.7375067,19.933983 2.578125,18.738281 1.4187433,17.54258 0.80109422,16.194955 1.0664062,15.205078 1.3485036,14.152545 1.9906374,13.391484 2.9667969,12.779297 3.9429563,12.16711 5.2517745,11.747892 6.6875,11.521484 9.5589509,11.06867 12.925774,11.393481 15.009766,11.96875 l 0.8125,0.224609 0.359375,-0.763671 c 1.147938,-2.4417951 2.981337,-3.0789967 5.001953,-3.0195317 z"
       id="path51361"
       sodipodi:nodetypes="accccsscscscccscscsscccccccccccccsaaccccccccscccccccccsscscccscccccscccscsscccc" />
  </g>
  <path
     fill-rule="evenodd"
     clip-rule="evenodd"
     d="m 24.641241,1.1085146 c 0.484,0.244422 0.6756,0.829517 0.4279,1.306842 -0.489,0.9425 -0.7536,2.29434 -0.8548,3.68384 -0.0998,1.37144 -0.0333,2.66933 0.0689,3.4332 0.0712,0.5316704 -0.308,1.0194804 -0.847,1.0895504 -0.539,0.07007 -1.0337,-0.30413 -1.1048,-0.8358104 -0.1203,-0.89834 -0.1899,-2.32813 -0.0808,-3.82659 0.1078,-1.4804 0.3972,-3.14069 1.0658,-4.42932 0.2477,-0.4773282 0.8408,-0.66613491 1.3248,-0.421712 z"
     fill="#1a1a1a"
     id="path2" />
  <path
     d="m 18.932741,16.480187 c 0.591,-2.7701 -5.4162,-3.2222 -8.49374,-3.1019 -12.1325298,0.2574 -7.0611698,7.5956 -0.344,8.4137 2.76434,0.3367 8.09894,-1.8492 8.83774,-5.3118 z"
     fill="#cfedfc"
     id="path4" />
  <path
     d="m 4.0063612,14.916487 c 0.34054,-0.2771 0.78266,-0.5279 1.33721,-0.743 l 0.17291,0.5359 0.88014,1.0998 1.28927,1.153 0.9905,-0.145 4.9510498,-0.5064 5.2045,0.5492 c -0.1637,0.515 -0.4287,0.9991 -0.7694,1.4477 -1.5404,-0.3044 -5.1366,-0.3947 -7.08986,-0.3983 -0.52266,0.6058 -0.71186,2.6658 -0.75274,3.896 -0.04222,-0.0039 -0.0839,-0.0084 -0.12501,-0.0134 -0.5482398,-0.0668 -1.0855198,-0.177 -1.6033698,-0.3232 -0.0479,-0.9619 0.28843,-2.3373 0.53317,-3.1008 -1.5311,0.0822 -3.15064,0.8283 -4.04387,1.3481 -0.41168,-0.3261 -0.76863,-0.6743 -1.05805,-1.0333 l 1.98456,-1.0757 c -0.30632,-0.1536 -1.27434,-1.6603 -1.90101,-2.6906 z"
     fill="#00ace6"
     id="path6" />
  <path
     fill-rule="evenodd"
     clip-rule="evenodd"
     d="m 36.561741,9.0564166 c -0.4102,-0.35197 -1.0318,-0.30931 -1.3885,0.09529 -0.7042,0.79888 -1.8771,1.5448404 -3.1462,2.1552804 -1.2527,0.6024 -2.4981,1.0253 -3.2547,1.2163 -0.5265,0.1329 -0.844,0.6619 -0.7091,1.1814 0.1349,0.5195 0.6711,0.8329 1.1977,0.6999 0.8897,-0.2246 2.2604,-0.6937 3.6291,-1.352 1.3521,-0.6503 2.8058,-1.534 3.7687,-2.62627 0.3566,-0.4046 0.3132,-1.0179204 -0.097,-1.3699004 z"
     fill="#1a1a1a"
     id="path12" />
  <path
     d="m 24.232341,20.016687 c 2.385,-1.5734 5.0488,3.7584 6.0825,6.621 4.2791,11.2045 -4.5124,9.2957 -7.785,3.4503 -1.3468,-2.4055 -1.2788,-8.1045 1.7025,-10.0713 z"
     fill="#cfedfc"
     id="path14" />
  <path
     d="m 31.264241,33.101587 c 0.1337,-0.4151 0.2048,-0.9133 0.2005,-1.5012 l -0.5685,0.0414 -1.3624,-0.3961 -1.5648,-0.7508 -0.2327,-0.9609 -1.3687,-4.7219 -2.4561,-4.5605 c -0.4233,0.3418 -0.7798,0.7648 -1.0748,1.2439 0.8604,1.297 2.2853,4.556 3.0167,6.343 -0.3751,0.7043 -2.242,1.6452 -3.3838,2.1411 0.0194,0.0372 0.0392,0.0737 0.0592,0.1095 0.2671,0.477 0.571,0.9279 0.9015,1.3475 0.9225,-0.3145 2.0908,-1.135 2.7176,-1.6436 0.4933,1.4325 0.3951,3.1933 0.2391,4.2049 0.4601,0.2554 0.9206,0.4525 1.3661,0.5837 l 0.2722,-2.2179 c 0.2586,0.2232 2.0364,0.548 3.2389,0.7379 z"
     fill="#00ace6"
     id="path16" />
  <g
     id="g51765"
     style="fill:#fefefe;fill-opacity:1"
     transform="translate(1.0048412,1.0015869)">
    <path
       fill-rule="evenodd"
       clip-rule="evenodd"
       d="M 54.343,22.3982 V 11.8828 h 5.1472 c 4.0187,0 5.3542,0.039 6.0907,0.1781 0.5191,0.098 1.2406,0.3123 1.6034,0.4762 0.3631,0.164 0.9375,0.5542 1.2765,0.8672 0.3391,0.3128 0.7534,0.8483 0.9206,1.1898 0.1672,0.3416 0.3604,0.9744 0.4292,1.4065 0.0847,0.5326 0.0848,1.0399 1e-4,1.5753 -0.0687,0.4343 -0.2642,1.074 -0.4345,1.4215 -0.1704,0.3475 -0.5565,0.8461 -0.858,1.1081 -0.3016,0.262 -0.8374,0.6126 -1.1906,0.779 l -0.6421,0.3029 0.3684,0.0925 c 0.2027,0.051 0.6016,0.1905 0.8867,0.31 0.285,0.1196 0.7763,0.4517 1.0918,0.7382 0.3155,0.2865 0.6994,0.7169 0.853,0.9567 0.1538,0.2397 0.367,0.7267 0.4741,1.0823 0.1093,0.363 0.1945,1.0871 0.1945,1.6519 0,0.6935 -0.0797,1.2451 -0.2571,1.7782 -0.1414,0.4251 -0.4592,1.0351 -0.7062,1.3556 -0.247,0.3206 -0.7529,0.7886 -1.1245,1.04 -0.3715,0.2515 -1.0246,0.5704 -1.4512,0.7088 -0.4267,0.1382 -1.2832,0.3042 -1.9036,0.3687 -0.6203,0.0645 -3.2969,0.1181 -5.9481,0.1193 l -4.8203,0.0021 -0.0116,-5.5134 -0.3251,0.4241 c -0.179,0.2333 -0.7152,0.809 -1.1917,1.2793 -0.4765,0.4704 -1.2191,1.0907 -1.6501,1.3786 -0.431,0.2877 -1.2324,0.7306 -1.7807,0.984 -0.5485,0.2535 -1.4117,0.5776 -1.9183,0.7204 -0.5366,0.1512 -1.4641,0.288 -2.2224,0.3278 -0.9829,0.0516 -1.5317,0.0178 -2.2418,-0.1382 -0.5172,-0.1134 -1.3231,-0.3953 -1.7908,-0.6262 -0.468,-0.231 -1.1288,-0.6666 -1.4687,-0.9682 -0.34,-0.3015 -0.8758,-0.9307 -1.1908,-1.3983 -0.315,-0.4675 -0.7053,-1.2261 -0.8673,-1.6858 -0.162,-0.4596 -0.3517,-1.2848 -0.4215,-1.8338 -0.0698,-0.5491 -0.0917,-1.3549 -0.0489,-1.7908 0.043,-0.436 0.185,-1.1913 0.3158,-1.6784 0.1306,-0.4871 0.3827,-1.1687 0.5601,-1.5147 0.1773,-0.3459 0.5467,-0.9562 0.8211,-1.356 0.2743,-0.3999 0.893,-1.1088 1.375,-1.5753 0.4819,-0.4665 1.1878,-1.0312 1.5685,-1.2547 0.3808,-0.2236 1.0393,-0.5508 1.4633,-0.7271 0.6831,-0.2839 1.6114,-0.3811 2.164,-0.3811 0.5527,0 1.4786,0.085 2.0896,0.4023 0.3617,0.1881 0.9004,0.5883 1.1971,0.8894 0.3798,0.3856 0.5978,0.7456 0.7364,1.2161 0.1366,0.4638 0.1717,0.868 0.1146,1.3196 -0.0454,0.358 -0.255,0.9916 -0.4658,1.4079 -0.2421,0.4779 -0.7256,1.0986 -1.3118,1.6839 -0.5105,0.5097 -1.4118,1.2369 -2.0028,1.6159 -0.5908,0.379 -1.4197,0.8431 -1.8421,1.0314 -0.4223,0.1882 -1.2098,0.4795 -1.7502,0.6472 -0.5404,0.1676 -1.2449,0.3437 -1.5659,0.391 -0.3965,0.0586 -0.5833,0.144 -0.5833,0.2671 0,0.0995 0.1651,0.5223 0.3669,0.9393 0.2018,0.4173 0.5936,0.9892 0.8709,1.271 0.2772,0.2819 0.8624,0.6779 1.3004,0.8801 0.6355,0.2934 1.0145,0.38 1.8755,0.4285 0.7599,0.0428 1.354,4e-4 2.0086,-0.1433 0.5112,-0.1122 1.4168,-0.4385 2.0125,-0.7249 0.5958,-0.2865 1.5252,-0.8504 2.0655,-1.2534 0.5404,-0.4029 1.3465,-1.1063 1.791,-1.563 0.4447,-0.4567 1.0665,-1.1772 1.3816,-1.6011 z m 10.5285,-5.802 c -0.1532,-0.2265 -0.4711,-0.5071 -0.7061,-0.6236 -0.3637,-0.1803 -0.7888,-0.2119 -2.8529,-0.212 l -2.4255,-2e-4 v 3.6352 h 2.3688 c 2.2123,0 2.405,-0.0181 2.9167,-0.2727 0.3567,-0.1774 0.6231,-0.4207 0.7627,-0.6967 0.1181,-0.2333 0.2149,-0.6478 0.2149,-0.9212 1e-4,-0.3153 -0.1017,-0.6477 -0.2786,-0.9088 z m -17.4749,0.4022 c -0.1053,-0.1486 -0.3513,-0.3515 -0.5464,-0.4512 -0.2067,-0.1054 -0.6839,-0.181 -1.1428,-0.181 -0.6599,0 -0.9352,0.0721 -1.6948,0.4434 -0.6591,0.3223 -1.1583,0.6953 -1.8279,1.3656 -0.6374,0.6381 -1.0834,1.2273 -1.4481,1.9129 -0.2898,0.5448 -0.605,1.3595 -0.7007,1.8104 -0.0957,0.4508 -0.1458,0.8474 -0.1115,0.8812 0.0341,0.0338 0.4897,-0.0258 1.0122,-0.1325 0.5224,-0.1065 1.3871,-0.3733 1.9214,-0.5928 0.5342,-0.2194 1.455,-0.7181 2.0462,-1.1083 0.5911,-0.3901 1.3277,-0.994 1.637,-1.342 0.3091,-0.3479 0.6712,-0.8544 0.8047,-1.1253 0.1333,-0.271 0.2425,-0.6541 0.2425,-0.8515 0,-0.1974 -0.0862,-0.4805 -0.1918,-0.6289 z M 65.3643,24.109 C 65.2117,23.8825 64.8409,23.5746 64.54,23.4246 64.0263,23.1685 63.8413,23.1519 61.5014,23.1519 h -2.4916 v 4.3835 l 2.5483,-0.041 c 2.2982,-0.0368 2.5966,-0.0657 3.0396,-0.2938 0.2902,-0.1496 0.6035,-0.4472 0.7656,-0.7271 0.2003,-0.3463 0.2749,-0.6732 0.2764,-1.2134 0.0014,-0.5676 -0.0626,-0.8351 -0.2754,-1.1511 z"
       fill="#1a1a1a"
       id="path22"
       style="fill:#fefefe;fill-opacity:1" />
    <path
       fill-rule="evenodd"
       clip-rule="evenodd"
       d="M 73.1944,31.3311 73.1316,11.8828 h 4.7129 c 3.6731,0 4.9534,0.041 5.8035,0.1854 0.6604,0.1122 1.4428,0.3494 1.983,0.6008 0.5063,0.2357 1.1748,0.6792 1.5456,1.025 0.3594,0.3353 0.7959,0.8693 0.9702,1.1865 0.1744,0.3174 0.4085,0.9267 0.5203,1.3544 0.1257,0.4815 0.2013,1.2424 0.1985,1.9993 -0.0026,0.6951 -0.0856,1.5239 -0.1923,1.9223 -0.1033,0.3854 -0.3054,0.9306 -0.4493,1.2118 -0.1439,0.2812 -0.4489,0.765 -0.6778,1.0751 -0.229,0.3102 -0.7885,0.8118 -1.2434,1.1147 -0.455,0.3029 -1.1588,0.6582 -1.5641,0.7894 -0.4053,0.1314 -1.1692,0.2978 -1.6975,0.3699 -0.5285,0.0721 -1.8953,0.131 -3.0376,0.131 h -2.0769 l -0.0654,6.4827 z M 83.6642,16.9356 C 83.4949,16.6364 83.1974,16.3493 82.8965,16.1946 82.461,15.9707 82.1512,15.8978 80.164,15.8642 l -2.2413,0.0023 v 4.9831 l 1.9956,-7e-4 c 1.0977,-4e-4 2.2045,-0.0578 2.4596,-0.1277 0.2552,-0.0699 0.6561,-0.2935 0.8908,-0.4969 0.2978,-0.258 0.4867,-0.5728 0.6248,-1.0418 0.1271,-0.4315 0.171,-0.8663 0.1226,-1.2151 -0.0415,-0.2988 -0.1998,-0.763 -0.3519,-1.0318 z"
       fill="#1a1a1a"
       id="path24"
       style="fill:#fefefe;fill-opacity:1" />
    <path
       d="m 91.907,21.7584 0.0317,9.5727 h 4.6668 l 0.065,-7.4488 8.1635,-0.0639 0.067,-3.9381 h -8.2341 v -3.8776 h 9.3341 V 11.8828 H 91.9037 c -0.0041,1.6849 -0.009,6.1928 0.0033,9.8756 z"
       fill="#1a1a1a"
       id="path26"
       style="fill:#fefefe;fill-opacity:1" />
  </g>
  <g
     aria-label="POWERED BY"
     id="text3622"
     style="font-size:5.33333px;line-height:1.25;font-family:'Twemoji Mozilla';-inkscape-font-specification:'Twemoji Mozilla';letter-spacing:3px;word-spacing:3px;fill:#fefefe;fill-opacity:1"
     transform="matrix(0.91796747,0,0,0.91796747,7.654565,5.552913)">
    <path
       d="M 42.301473,3.9708607 V 0.11669635 h 1.567707 q 0.492187,0 0.734375,0.0625 0.242187,0.0598958 0.411458,0.24218736 0.236979,0.25260401 0.236979,0.71874949 0,1.3203118 -1.60677,1.3203118 h -0.557291 v 1.5104157 z m 0.786458,-2.0390613 h 0.380208 q 0.963541,0 0.963541,-0.7135412 0,-0.31770815 -0.190104,-0.44531224 -0.190104,-0.12760409 -0.619792,-0.12760409 h -0.533853 z"
       style="font-weight:600;font-family:Go;-inkscape-font-specification:'Go Semi-Bold';fill:#fefefe;fill-opacity:1"
       id="path42734" />
    <path
       d="m 50.455116,4.0672148 q -0.854167,0 -1.346354,-0.5416663 -0.492187,-0.5442705 -0.492187,-1.48177 0,-0.9505202 0.494791,-1.48697825 0.497396,-0.53645801 1.372395,-0.53645801 0.872396,0 1.367187,0.53645801 0.497396,0.53645805 0.497396,1.47916575 0,0.9635411 -0.497396,1.497395 -0.497396,0.5338538 -1.395832,0.5338538 z m 0.01302,-0.5312497 q 0.494792,0 0.760417,-0.3880206 0.268229,-0.3906247 0.268229,-1.1145826 0,-0.7005204 -0.268229,-1.09114521 -0.265625,-0.39322893 -0.744792,-0.39322893 -0.48177,0 -0.749999,0.39322893 -0.265625,0.39062481 -0.265625,1.10156181 0,0.7005205 0.265625,1.0963535 0.265625,0.3958331 0.734374,0.3958331 z"
       style="font-weight:600;font-family:Go;-inkscape-font-specification:'Go Semi-Bold';fill:#fefefe;fill-opacity:1"
       id="path42736" />
    <path
       d="M 56.611364,3.9708607 55.621781,0.11669635 h 0.757812 l 0.73177,2.82031085 0.729167,-2.82031085 h 0.66927 l 0.664062,2.82812335 0.783854,-2.82812335 h 0.570312 L 59.457716,3.9708607 h -0.768229 l -0.624999,-2.6432276 -0.6875,2.6432276 z"
       style="font-weight:600;font-family:Go;-inkscape-font-specification:'Go Semi-Bold';fill:#fefefe;fill-opacity:1"
       id="path42738" />
    <path
       d="M 64.041049,3.9708607 V 0.11669635 h 2.828123 v 0.52864552 h -2.02604 V 1.7208621 H 66.58011 V 2.2364868 H 64.843132 V 3.423986 h 2.148436 v 0.5468747 z"
       style="font-weight:600;font-family:Go;-inkscape-font-specification:'Go Semi-Bold';fill:#fefefe;fill-opacity:1"
       id="path42740" />
    <path
       d="M 70.598338,3.9708607 V 0.11669635 h 1.679687 q 1.174478,0 1.174478,0.95572855 0,0.7630204 -0.747395,1.0989577 l 1.260416,1.7994781 H 73.064483 L 71.98115,2.3953408 h -0.627604 v 1.5755199 z m 0.755208,-2.1041654 h 0.421875 q 0.872395,0 0.872395,-0.7057287 0,-0.51562473 -0.778645,-0.51562473 h -0.515625 z"
       style="font-weight:600;font-family:Go;-inkscape-font-specification:'Go Semi-Bold';fill:#fefefe;fill-opacity:1"
       id="path42742" />
    <path
       d="M 77.449899,3.9708607 V 0.11669635 h 2.828123 v 0.52864552 h -2.02604 V 1.7208621 H 79.98896 V 2.2364868 H 78.251982 V 3.423986 h 2.148436 v 0.5468747 z"
       style="font-weight:600;font-family:Go;-inkscape-font-specification:'Go Semi-Bold';fill:#fefefe;fill-opacity:1"
       id="path42744" />
    <path
       d="M 84.007188,3.9708607 V 0.11669635 h 1.341145 q 0.895833,0 1.372395,0.47656222 0.479166,0.47395803 0.479166,1.36979083 0,0.9531244 -0.505208,1.48177 -0.505208,0.5260413 -1.416666,0.5260413 z M 84.809271,3.423986 h 0.283854 q 0.632812,0 0.942708,-0.3489581 0.312499,-0.3515623 0.312499,-1.0651035 0,-0.6380205 -0.312499,-0.9999994 -0.3125,-0.36458313 -0.861979,-0.36458313 h -0.364583 z"
       style="font-weight:600;font-family:Go;-inkscape-font-specification:'Go Semi-Bold';fill:#fefefe;fill-opacity:1"
       id="path42746" />
    <path
       d="M 98.340516,3.9708607 V 0.11669635 h 1.864584 q 1.1875,0 1.1875,0.85677032 0,0.69531213 -0.92448,0.98437443 1.08333,0.2604165 1.08333,1.0598952 0,0.4609372 -0.31771,0.7083329 -0.3151,0.2447915 -0.90885,0.2447915 z m 0.755208,-2.2499986 h 0.744791 q 0.338545,0 0.536455,-0.1666666 0.20052,-0.1692707 0.20052,-0.4531247 0,-0.26302071 -0.16145,-0.35937482 -0.15886,-0.0963541 -0.604171,-0.0963541 h -0.716145 z m 0,1.7031239 h 0.726562 q 0.505204,0 0.695314,-0.1067707 0.19271,-0.109375 0.19271,-0.393229 0,-0.2968748 -0.25782,-0.4921872 -0.2552,-0.1953123 -0.645829,-0.1953123 h -0.710937 z"
       style="font-weight:600;font-family:Go;-inkscape-font-specification:'Go Semi-Bold';fill:#fefefe;fill-opacity:1"
       id="path42748" />
    <path
       d="M 106.09312,3.9708607 V 2.3562783 l -1.27865,-2.23958195 h 0.88803 l 0.92187,1.62760315 0.96875,-1.62760315 h 0.63542 L 106.8952,2.35107 v 1.6197907 z"
       style="font-weight:600;font-family:Go;-inkscape-font-specification:'Go Semi-Bold';fill:#fefefe;fill-opacity:1"
       id="path42750" />
  </g>
  <path
     id="path8"
     d="m 17.904297,19.821332 -5.910156,3.75 -3.2031254,-0.964843 -1.3339844,3.138672 0.7460938,3.574218 1.4863281,2.164063 3.8730469,2.582031 2.589844,0.554688 3.638672,-0.648438 2.455078,-2.392578 -2.09961,-2.572266 1.324219,-6.80664 -1.408205,-1.688416 z"
     style="fill:#ffe100;fill-opacity:1"
     sodipodi:nodetypes="cccccccccccccc" />
  <path
     id="path10"
     d="m 12.652348,34.856536 c 4.2173,2.1685 8.31589,-0.143813 9.83789,-1.570313 1.3855,2.0962 6.342619,4.723916 8.886719,2.853516 4.4296,-3.2567 0.893581,-11.709181 -1.949219,-15.363281 3.8926,-4.0847 0.553641,-8.946987 -2.193359,-10.7783209 C 25.860875,9.0829116 23.721387,8.3122984 21.625,8.4072697 c -2.096387,0.094971 -4.1482,1.0545862 -5.34375,3.5976563 -4.4962,-1.24114 -13.7634925,-1.327983 -15.1757812,3.941406 -0.81112531,3.026301 3.5063406,6.586719 5.9941406,7.074219 -0.77441,1.925 -1.4216369,6.538497 2.1894531,9.591797 l -0.5546856,4.385766 z m 6.281246,-18.390672 c -2.6707,-0.3995 -7.292736,-0.76755 -10.8535159,0.03125 -0.56437,-0.1982 -1.7273356,-0.962347 -2.2285156,-2.498047 1.12618,-0.3514 2.6336477,-0.575788 4.5859375,-0.617188 0.383884,-0.015 0.812973,-0.02182 1.269531,-0.01563 3.195909,0.04338 7.7184,0.689425 7.226563,3.099613 z M 4.9101562,14.362348 c 0.19478,0.6288 0.7443094,1.60055 2.0058594,2.53125 -0.8726,0.222 -2.4759737,0.718213 -3.3710937,1.257813 -0.83278,-1.3884 -0.6080756,-2.853263 1.3652343,-3.789063 z m 7.7226558,2.535156 c 1.439801,-0.0036 4.213672,0.05817 6.076172,0.296875 -1.1767,2.8593 -5.468807,4.679666 -8.117187,4.634766 -0.16635,-1.3942 0.08577,-3.614741 2.041015,-4.931641 z m -1.435546,0.142578 c -0.70578,0.7756 -1.8553373,2.679619 -1.4980472,4.699219 -2.27808,-0.3663 -4.3262813,-1.466006 -5.5195313,-2.753906 1.11516,-0.7957 3.3966283,-1.809013 7.0175785,-1.945313 z m 13.949218,2.69336 c 2.117466,0.02402 4.263454,4.404772 5.166016,6.904297 0.6886,1.8029 1.037853,3.267587 1.126953,4.429687 -1.6311,0.1134 -2.782987,-0.666475 -3.179687,-1.109375 -0.5757,-3.5579 -2.644625,-7.652718 -4.015625,-9.949219 0.29765,-0.192637 0.599848,-0.278822 0.902343,-0.27539 z m -10.660156,3.234375 c 0.9859,-0.319 3.233984,-1.270697 4.333984,-2.529297 l 1.730469,1.15425 c -0.7738,1.4761 -0.831072,3.888656 -0.763672,4.910156 -1.3678,0.4355 -2.842003,-0.260009 -3.408203,-0.661109 -0.5891,-0.3675 -1.792478,-1.4595 -1.892578,-2.874 z m 9.158203,-2.482427 c 0.9185,1.6163 2.009869,4.133325 2.542969,5.453125 -0.51,2.2809 -2.505706,3.337878 -3.878906,3.705078 -1.0291,-2.4081 -0.914763,-7.015403 1.335937,-9.158203 z m -13.546875,3.144531 c 0.06092,1.138996 0.907766,3.899151 3.801782,5.831078 2.895048,1.930343 5.805425,1.676343 6.899437,1.30764 l 0.455078,0.960938 c -3.2834,3.3181 -7.483559,1.819503 -9.318359,0.596703 -1.83476,-1.2229 -4.8092595,-4.510106 -2.912133,-8.752953 z m 16.490235,3.673828 c 1.2211,3.3661 1.119909,5.834844 0.787109,7.152344 -1.656,-0.6126 -3.454937,-2.078044 -4.648438,-4.027344 2.032701,-0.4255 3.394829,-2.1898 3.861329,-3.125 z m 1.732421,3.867188 c 1.345401,0.8082 2.465007,0.950431 3.128907,0.894531 -0.1447,2.1554 -1.438588,2.905256 -3.054688,2.660156 0.174,-1.0207 0.04208,-2.672987 -0.07422,-3.554687 z"
     style="fill:#1a1a1a;fill-opacity:1"
     sodipodi:nodetypes="cccccsccccccccccccccccccccsccsccccscccccccccccscccccscccccccc" />
</svg>
