<svg width="35" height="35" viewBox="0 0 35 35" fill="none" xmlns="http://www.w3.org/2000/svg">
<path fill-rule="evenodd" clip-rule="evenodd" d="M29.3361 18.8075H24.2368L21.6571 23.3262L24.2368 27.7838H29.3361L31.9157 23.3262L29.3361 18.8075Z" fill="#8061A9"/>
<path fill-rule="evenodd" clip-rule="evenodd" d="M29.3361 6.83905H24.2368L21.6571 11.3577L24.2368 15.8153H29.3361L31.9157 11.3577L29.3361 6.83905Z" fill="#F17323"/>
<path fill-rule="evenodd" clip-rule="evenodd" d="M19.0774 1.13983H13.9781L11.3984 5.65852L13.9781 10.1161H19.0774L21.6571 5.65852L19.0774 1.13983Z" fill="#F8C517"/>
<path fill-rule="evenodd" clip-rule="evenodd" d="M8.81889 6.83905H3.71959L1.13989 11.3577L3.71959 15.8153H8.81889L11.3985 11.3577L8.81889 6.83905Z" fill="#CADD72"/>
<path fill-rule="evenodd" clip-rule="evenodd" d="M19.0774 12.5383H13.9781L11.3984 17.057L13.9781 21.5146H19.0774L21.6571 17.057L19.0774 12.5383Z" fill="#E82629"/>
<path fill-rule="evenodd" clip-rule="evenodd" d="M8.81889 18.8075H3.71959L1.13989 23.3262L3.71959 27.7838H8.81889L11.3985 23.3262L8.81889 18.8075Z" fill="#98C93E"/>
<path fill-rule="evenodd" clip-rule="evenodd" d="M19.0774 24.5067H13.9781L11.3984 29.0254L13.9781 33.483H19.0774L21.6571 29.0254L19.0774 24.5067Z" fill="#628AC6"/>
<path fill-rule="evenodd" clip-rule="evenodd" d="M18.8181 20.7783H14.2377L11.9205 16.8397L14.2377 12.8471H18.8181L21.1352 16.8397L18.8181 20.7783ZM19.6441 11.3984H13.3933L10.2587 16.831L13.3933 22.227H19.6441L22.797 16.831L19.6441 11.3984Z" fill="#363736"/>
<path fill-rule="evenodd" clip-rule="evenodd" d="M13.3932 23.3669L10.2587 28.7995L13.3932 34.1954H19.6441L22.797 28.7995L19.6441 23.3669H13.3932ZM11.9204 28.8082L14.2376 24.8156H18.818L21.1352 28.8082L18.818 32.7468H14.2376L11.9204 28.8082Z" fill="#363736"/>
<path fill-rule="evenodd" clip-rule="evenodd" d="M13.3932 0L10.2587 5.43263L13.3932 10.8285H19.6441L22.797 5.43263L19.6441 0H13.3932ZM11.9204 5.4412L14.2376 1.4487H18.818L21.1352 5.4412L18.818 9.37985H14.2376L11.9204 5.4412Z" fill="#363736"/>
<path fill-rule="evenodd" clip-rule="evenodd" d="M23.6518 17.6676L20.5172 23.1002L23.6518 28.4961H29.9026L33.0555 23.1002L29.9026 17.6676H23.6518ZM22.1791 23.1088L24.4962 19.1162H29.0766L31.3937 23.1088L29.0766 27.0475H24.4962L22.1791 23.1088Z" fill="#363736"/>
<path fill-rule="evenodd" clip-rule="evenodd" d="M23.6518 5.69922L20.5172 11.1319L23.6518 16.5278H29.9026L33.0555 11.1319L29.9026 5.69922H23.6518ZM22.1791 11.1405L24.4962 7.14791H29.0766L31.3937 11.1405L29.0766 15.0791H24.4962L22.1791 11.1405Z" fill="#363736"/>
<path fill-rule="evenodd" clip-rule="evenodd" d="M3.13453 17.6676L0 23.1002L3.13453 28.4961H9.38542L12.5383 23.1002L9.38542 17.6676H3.13453ZM1.66179 23.1088L3.97892 19.1162H8.55933L10.8765 23.1088L8.55933 27.0475H3.97892L1.66179 23.1088Z" fill="#363736"/>
<path fill-rule="evenodd" clip-rule="evenodd" d="M3.13453 5.69922L0 11.1319L3.13453 16.5278H9.38542L12.5383 11.1319L9.38542 5.69922H3.13453ZM1.66179 11.1405L3.97892 7.14791H8.55933L10.8765 11.1405L8.55933 15.0791H3.97892L1.66179 11.1405Z" fill="#363736"/>
</svg>
