<?xml version="1.0" encoding="UTF-8" standalone="no"?>
<!-- Generator: Adobe Illustrator 21.0.2, SVG Export Plug-In . SVG Version: 6.00 Build 0)  -->

<svg
   xmlns:dc="http://purl.org/dc/elements/1.1/"
   xmlns:cc="http://creativecommons.org/ns#"
   xmlns:rdf="http://www.w3.org/1999/02/22-rdf-syntax-ns#"
   xmlns:svg="http://www.w3.org/2000/svg"
   xmlns="http://www.w3.org/2000/svg"
   xmlns:sodipodi="http://sodipodi.sourceforge.net/DTD/sodipodi-0.dtd"
   xmlns:inkscape="http://www.inkscape.org/namespaces/inkscape"
   version="1.1"
   id="Layer_1"
   x="0px"
   y="0px"
   viewBox="0 0 233.2 69.1"
   style="enable-background:new 0 0 233.2 69.1;"
   xml:space="preserve"
   inkscape:version="0.91 r13725"
   sodipodi:docname="CiliumLogo_Color_Horizontal-withOutline-01.svg"><metadata
     id="metadata3573"><rdf:RDF><cc:Work
         rdf:about=""><dc:format>image/svg+xml</dc:format><dc:type
           rdf:resource="http://purl.org/dc/dcmitype/StillImage" /></cc:Work></rdf:RDF></metadata><defs
     id="defs3571" /><sodipodi:namedview
     pagecolor="#ffffff"
     bordercolor="#666666"
     borderopacity="1"
     objecttolerance="10"
     gridtolerance="10"
     guidetolerance="10"
     inkscape:pageopacity="0"
     inkscape:pageshadow="2"
     inkscape:window-width="1276"
     inkscape:window-height="755"
     id="namedview3569"
     showgrid="false"
     inkscape:zoom="4.8694908"
     inkscape:cx="116.25"
     inkscape:cy="34.299998"
     inkscape:window-x="4"
     inkscape:window-y="1"
     inkscape:window-maximized="1"
     inkscape:current-layer="Layer_1" /><style
     type="text/css"
     id="style3501">
	.st0{fill:#373737;}
	.st1{fill:#E82429;}
	.st2{fill:#6289C6;}
	.st3{fill:#F9C515;}
	.st4{fill:#8061A9;}
	.st5{fill:#F17423;}
	.st6{fill:#97C93D;}
	.st7{fill:#CADD72;}
	.st8{fill:#1E2222;}
</style><g
     id="g3503"><g
       id="g3505"><g
         id="g3507"><path
           class="st0"
           d="M39.4,23.8H26.6l-6.4,11.1l6.4,11h12.8l6.4-11L39.4,23.8z M37.7,42.9h-9.4l-4.7-8l4.7-8.1h9.4l4.7,8.1     L37.7,42.9z"
           id="path3509" /><polygon
           class="st1"
           points="37.7,26.7 28.3,26.7 23.6,34.9 28.3,42.9 37.7,42.9 42.4,34.9    "
           id="polygon3511" /></g><g
         id="g3513"><path
           class="st0"
           d="M39.4,47.4H26.6l-6.4,11.1l6.4,11h12.8l6.4-11L39.4,47.4z M37.7,66.6h-9.4l-4.7-8l4.7-8.1h9.4l4.7,8.1     L37.7,66.6z"
           id="path3515" /><polygon
           class="st2"
           points="37.7,50.4 28.3,50.4 23.6,58.5 28.3,66.6 37.7,66.6 42.4,58.5    "
           id="polygon3517" /></g><g
         id="g3519"><path
           class="st0"
           d="M39.4,0.1H26.6l-6.4,11.1l6.4,11h12.8l6.4-11L39.4,0.1z M37.7,19.2h-9.4l-4.7-8L28.3,3h9.4l4.7,8.1     L37.7,19.2z"
           id="path3521" /><polygon
           class="st3"
           points="37.7,3 28.3,3 23.6,11.2 28.3,19.2 37.7,19.2 42.4,11.2    "
           id="polygon3523" /></g></g><g
       id="g3525"><g
         id="g3527"><path
           class="st0"
           d="M60.2,35.7H47.5l-6.4,11.1l6.4,11h12.8l6.4-11L60.2,35.7z M58.5,54.8h-9.4l-4.7-8l4.7-8.1h9.4l4.7,8.1     L58.5,54.8z"
           id="path3529" /><polygon
           class="st4"
           points="58.5,38.6 49.2,38.6 44.5,46.8 49.2,54.8 58.5,54.8 63.3,46.8    "
           id="polygon3531" /></g><g
         id="g3533"><path
           class="st0"
           d="M60.2,12H47.5L41.1,23l6.4,11h12.8l6.4-11L60.2,12z M58.5,31.1h-9.4l-4.7-8l4.7-8.1h9.4l4.7,8.1L58.5,31.1z"
           id="path3535" /><polygon
           class="st5"
           points="58.5,14.9 49.2,14.9 44.5,23.1 49.2,31.1 58.5,31.1 63.3,23.1    "
           id="polygon3537" /></g></g><g
       id="g3539"><g
         id="g3541"><path
           class="st0"
           d="M18.5,35.7H5.8l-6.4,11.1l6.4,11h12.8l6.4-11L18.5,35.7z M16.8,54.8H7.5l-4.7-8l4.7-8.1h9.4l4.7,8.1     L16.8,54.8z"
           id="path3543" /><polygon
           class="st6"
           points="16.8,38.6 7.5,38.6 2.8,46.8 7.5,54.8 16.8,54.8 21.6,46.8    "
           id="polygon3545" /></g><g
         id="g3547"><path
           class="st0"
           d="M18.5,12H5.8L-0.6,23l6.4,11h12.8L25,23L18.5,12z M16.8,31.1H7.5l-4.7-8l4.7-8.1h9.4l4.7,8.1L16.8,31.1z"
           id="path3549" /><polygon
           class="st7"
           points="16.8,14.9 7.5,14.9 2.8,23.1 7.5,31.1 16.8,31.1 21.6,23.1    "
           id="polygon3551" /></g></g></g><g
     id="g3553"
     transform="matrix(0.81996273,0,0,0.81996273,12.805528,8.2091107)"><g
       id="g3555"><path
         class="st8"
         d="m 85,17.4 c 1.6,0 3.1,0.2 4.5,0.5 1.4,0.3 2.6,0.8 3.7,1.4 l 0,4.4 C 91.8,23.2 90.5,22.8 89.3,22.5 88,22.2 86.8,22 85.5,22 c -1.3,0 -2.6,0.2 -3.9,0.6 -1.3,0.4 -2.4,1.1 -3.5,2.1 -1,1 -1.8,2.3 -2.5,3.9 -0.6,1.6 -0.9,3.6 -0.9,6 0,1.7 0.2,3.3 0.7,4.8 0.5,1.5 1.2,2.7 2.1,3.8 0.9,1.1 2.1,1.9 3.4,2.5 1.4,0.6 3,0.9 4.8,0.9 1.3,0 2.6,-0.1 4,-0.4 1.3,-0.3 2.6,-0.7 3.9,-1.2 l 0,4.4 c -0.4,0.2 -0.9,0.5 -1.5,0.7 -0.6,0.2 -1.3,0.4 -2.1,0.6 -0.7,0.2 -1.5,0.3 -2.4,0.4 -0.8,0.1 -1.7,0.2 -2.5,0.2 -2.2,0 -4.2,-0.3 -6.2,-1 -1.9,-0.7 -3.6,-1.7 -5.1,-3 -1.4,-1.4 -2.6,-3.1 -3.4,-5.2 -0.8,-2.1 -1.3,-4.5 -1.3,-7.4 0,-2.1 0.2,-4 0.7,-5.7 0.4,-1.7 1,-3.2 1.8,-4.5 0.8,-1.3 1.7,-2.4 2.7,-3.3 1,-0.9 2.1,-1.6 3.3,-2.2 1.2,-0.6 2.4,-1 3.6,-1.3 1.4,-0.1 2.6,-0.3 3.8,-0.3 z"
         id="path3557"
         inkscape:connector-curvature="0"
         style="fill:#1e2222" /><path
         class="st8"
         d="m 101.8,10.8 0,-5.9 5.3,0 0,5.9 -5.3,0 z m 0.1,39.7 0,-32.2 5.3,0 0,32.2 -5.3,0 z"
         id="path3559"
         inkscape:connector-curvature="0"
         style="fill:#1e2222" /><path
         class="st8"
         d="m 118,50.5 0,-49.1 5.3,0 0,49.1 -5.3,0 z"
         id="path3561"
         inkscape:connector-curvature="0"
         style="fill:#1e2222" /><path
         class="st8"
         d="m 134,10.8 0,-5.9 5.3,0 0,5.9 -5.3,0 z m 0.1,39.7 0,-32.2 5.3,0 0,32.2 -5.3,0 z"
         id="path3563"
         inkscape:connector-curvature="0"
         style="fill:#1e2222" /><path
         class="st8"
         d="m 162.7,51.3 c -1.7,0 -3.2,-0.2 -4.5,-0.5 -1.3,-0.4 -2.5,-0.9 -3.5,-1.5 -1,-0.7 -1.9,-1.4 -2.6,-2.4 -0.7,-0.9 -1.3,-1.9 -1.7,-3 -0.3,-0.8 -0.5,-1.7 -0.7,-2.7 -0.1,-1 -0.2,-2 -0.2,-3.2 l 0,-19.7 5.3,0 0,19.7 c 0,1.8 0.2,3.3 0.7,4.5 0.5,1.4 1.4,2.4 2.6,3.2 1.2,0.8 2.8,1.2 4.6,1.2 2,0 3.6,-0.4 4.8,-1.3 1.2,-0.9 2.1,-2 2.6,-3.5 0.4,-1.1 0.6,-2.5 0.6,-4.1 l 0,-19.7 5.3,0 0,19.8 c 0,1.1 -0.1,2.1 -0.2,3 -0.1,0.9 -0.3,1.8 -0.6,2.6 -0.4,1.1 -1,2.1 -1.7,3.1 -0.7,0.9 -1.6,1.7 -2.6,2.4 -1,0.7 -2.2,1.2 -3.6,1.6 -1.4,0.3 -2.9,0.5 -4.6,0.5 z"
         id="path3565"
         inkscape:connector-curvature="0"
         style="fill:#1e2222" /><path
         class="st8"
         d="m 212.1,50.5 -5.3,0 0,-20.7 c 0,-1.4 -0.2,-2.6 -0.5,-3.6 -0.3,-1 -0.7,-1.8 -1.3,-2.4 -0.6,-0.6 -1.3,-1.1 -2.1,-1.4 -0.8,-0.3 -1.7,-0.4 -2.7,-0.4 -1.9,0 -3.6,0.5 -5.1,1.5 -1.5,1 -2.9,2.4 -4.1,4.2 l 0,22.9 -5.3,0 0,-32.3 4.1,0 1,4.5 0.1,0 c 0.6,-0.7 1.2,-1.4 1.9,-2.1 0.7,-0.6 1.5,-1.2 2.3,-1.7 0.8,-0.5 1.8,-0.9 2.8,-1.1 1,-0.3 2.1,-0.4 3.3,-0.4 2.4,0 4.4,0.6 6,1.7 1.6,1.2 2.8,2.7 3.7,4.7 l 0.1,0 c 1.4,-2 3.1,-3.6 4.9,-4.7 1.8,-1.1 4,-1.7 6.4,-1.7 1.1,0 2.3,0.2 3.6,0.5 1.3,0.3 2.4,0.9 3.5,1.7 1.1,0.8 1.9,2 2.6,3.5 0.7,1.5 1.1,3.4 1.1,5.8 l 0,21.6 -5.1,0 0,-20.8 c 0,-1.4 -0.2,-2.6 -0.5,-3.6 -0.3,-1 -0.7,-1.8 -1.3,-2.4 -0.6,-0.6 -1.3,-1.1 -2.1,-1.4 -0.8,-0.3 -1.7,-0.4 -2.7,-0.4 -1.9,0 -3.6,0.5 -5.1,1.5 -1.5,1 -2.9,2.4 -4.2,4.2 l 0,22.8 z"
         id="path3567"
         inkscape:connector-curvature="0"
         style="fill:#1e2222" /></g></g></svg>